<mxfile host="app.diagrams.net" modified="2024-07-04T14:57:01.720Z" agent="Mozilla/5.0 (X11; Linux x86_64; rv:109.0) Gecko/20100101 Firefox/115.0" etag="hhK-WjEBhR9JOxP4MtOK" version="24.6.4" type="device">
  <diagram name="Page-1" id="Fii5o7u1PQ_umPXUwyru">
    <mxGraphModel dx="1195" dy="592" grid="1" gridSize="10" guides="1" tooltips="1" connect="1" arrows="1" fold="1" page="1" pageScale="1" pageWidth="3300" pageHeight="4681" math="0" shadow="0">
      <root>
        <mxCell id="0" />
        <mxCell id="1" parent="0" />
        <mxCell id="gdtWf7uFJ5adirnmfVYU-2" value="HTTPX" style="rounded=0;whiteSpace=wrap;html=1;fillColor=#00cc00;fontColor=#FFFFFF;" parent="1" vertex="1">
          <mxGeometry x="240" y="120" width="120" height="20" as="geometry" />
        </mxCell>
        <mxCell id="gdtWf7uFJ5adirnmfVYU-3" value="DNSREAPER" style="rounded=0;whiteSpace=wrap;html=1;fillColor=#00cc00;fontColor=#FFFFFF;" parent="1" vertex="1">
          <mxGeometry x="240" y="160" width="120" height="20" as="geometry" />
        </mxCell>
        <mxCell id="gdtWf7uFJ5adirnmfVYU-4" value="NAABU" style="rounded=0;whiteSpace=wrap;html=1;fillColor=#00cc00;fontColor=#FFFFFF;" parent="1" vertex="1">
          <mxGeometry x="280" y="1160" width="120" height="20" as="geometry" />
        </mxCell>
        <mxCell id="gdtWf7uFJ5adirnmfVYU-5" value="" style="endArrow=classic;html=1;rounded=0;exitX=1;exitY=0.5;exitDx=0;exitDy=0;entryX=0;entryY=0.5;entryDx=0;entryDy=0;fontColor=#FFFFFF;" parent="1" edge="1">
          <mxGeometry width="50" height="50" relative="1" as="geometry">
            <mxPoint x="360" y="129.5" as="sourcePoint" />
            <mxPoint x="440" y="129.5" as="targetPoint" />
          </mxGeometry>
        </mxCell>
        <mxCell id="gdtWf7uFJ5adirnmfVYU-6" value="NMAP" style="rounded=0;whiteSpace=wrap;html=1;fillColor=#00cc00;fontColor=#FFFFFF;" parent="1" vertex="1">
          <mxGeometry x="480" y="1160" width="120" height="20" as="geometry" />
        </mxCell>
        <mxCell id="gdtWf7uFJ5adirnmfVYU-7" value="" style="endArrow=classic;html=1;rounded=0;fontColor=#FFFFFF;entryX=0;entryY=0.5;entryDx=0;entryDy=0;" parent="1" target="gdtWf7uFJ5adirnmfVYU-6" edge="1">
          <mxGeometry width="50" height="50" relative="1" as="geometry">
            <mxPoint x="400" y="1170" as="sourcePoint" />
            <mxPoint x="440" y="1170" as="targetPoint" />
          </mxGeometry>
        </mxCell>
        <mxCell id="gdtWf7uFJ5adirnmfVYU-8" value="BRUTEFORCE_SUBDOMAINS" style="rounded=0;whiteSpace=wrap;html=1;fillColor=#00cc00;fontColor=#FFFFFF;" parent="1" vertex="1">
          <mxGeometry x="440" y="160" width="180" height="20" as="geometry" />
        </mxCell>
        <mxCell id="gdtWf7uFJ5adirnmfVYU-9" value="" style="endArrow=classic;html=1;rounded=0;entryX=0;entryY=0.5;entryDx=0;entryDy=0;fontColor=#FFFFFF;" parent="1" edge="1">
          <mxGeometry width="50" height="50" relative="1" as="geometry">
            <mxPoint x="400" y="130" as="sourcePoint" />
            <mxPoint x="440" y="170" as="targetPoint" />
            <Array as="points">
              <mxPoint x="400" y="170" />
            </Array>
          </mxGeometry>
        </mxCell>
        <mxCell id="gdtWf7uFJ5adirnmfVYU-10" value="DIRECTORIES" style="rounded=0;whiteSpace=wrap;html=1;fillColor=#00cc00;fontColor=#FFFFFF;" parent="1" vertex="1">
          <mxGeometry x="680" y="160" width="120" height="20" as="geometry" />
        </mxCell>
        <mxCell id="gdtWf7uFJ5adirnmfVYU-11" value="" style="endArrow=classic;html=1;rounded=0;entryX=0;entryY=0.5;entryDx=0;entryDy=0;fontColor=#FFFFFF;" parent="1" target="gdtWf7uFJ5adirnmfVYU-10" edge="1">
          <mxGeometry width="50" height="50" relative="1" as="geometry">
            <mxPoint x="620" y="170" as="sourcePoint" />
            <mxPoint x="640" y="169.5" as="targetPoint" />
          </mxGeometry>
        </mxCell>
        <mxCell id="gdtWf7uFJ5adirnmfVYU-12" value="KATANA" style="rounded=0;whiteSpace=wrap;html=1;fillColor=#00cc00;fontColor=#FFFFFF;" parent="1" vertex="1">
          <mxGeometry x="840" y="160" width="120" height="20" as="geometry" />
        </mxCell>
        <mxCell id="gdtWf7uFJ5adirnmfVYU-13" value="&lt;div&gt;FINAL_DATA_VERSION&lt;/div&gt;" style="rounded=0;whiteSpace=wrap;html=1;fillColor=#00cc00;strokeColor=#FFCCCC;strokeWidth=3;fontColor=#FFFFFF;" parent="1" vertex="1">
          <mxGeometry x="1040" y="160" width="140" height="20" as="geometry" />
        </mxCell>
        <mxCell id="gdtWf7uFJ5adirnmfVYU-15" value="API_DISCOVERY" style="rounded=0;whiteSpace=wrap;html=1;fillColor=#00cc00;fontColor=#FFFFFF;" parent="1" vertex="1">
          <mxGeometry x="440" y="120" width="120" height="20" as="geometry" />
        </mxCell>
        <mxCell id="gdtWf7uFJ5adirnmfVYU-16" value="" style="endArrow=classic;html=1;rounded=0;entryX=0;entryY=0.5;entryDx=0;entryDy=0;fontColor=#FFFFFF;" parent="1" edge="1">
          <mxGeometry width="50" height="50" relative="1" as="geometry">
            <mxPoint x="400" y="130" as="sourcePoint" />
            <mxPoint x="440" y="170" as="targetPoint" />
            <Array as="points">
              <mxPoint x="400" y="170" />
            </Array>
          </mxGeometry>
        </mxCell>
        <mxCell id="gdtWf7uFJ5adirnmfVYU-17" value="" style="endArrow=classic;html=1;rounded=0;exitX=1;exitY=0.5;exitDx=0;exitDy=0;fontColor=#FFFFFF;" parent="1" edge="1">
          <mxGeometry width="50" height="50" relative="1" as="geometry">
            <mxPoint x="800" y="169.5" as="sourcePoint" />
            <mxPoint x="840" y="170" as="targetPoint" />
          </mxGeometry>
        </mxCell>
        <mxCell id="gdtWf7uFJ5adirnmfVYU-18" value="SUBFINDER" style="rounded=0;whiteSpace=wrap;html=1;fillColor=#00CC00;fontColor=#FFFFFF;" parent="1" vertex="1">
          <mxGeometry x="40" y="40" width="120" height="20" as="geometry" />
        </mxCell>
        <mxCell id="gdtWf7uFJ5adirnmfVYU-19" value="" style="endArrow=classic;html=1;rounded=0;exitX=1;exitY=0.5;exitDx=0;exitDy=0;entryX=0;entryY=0.5;entryDx=0;entryDy=0;fontColor=#FFFFFF;" parent="1" edge="1">
          <mxGeometry width="50" height="50" relative="1" as="geometry">
            <mxPoint x="160" y="49.5" as="sourcePoint" />
            <mxPoint x="240" y="49.5" as="targetPoint" />
          </mxGeometry>
        </mxCell>
        <mxCell id="gdtWf7uFJ5adirnmfVYU-20" value="" style="endArrow=classic;html=1;rounded=0;entryX=0;entryY=0.5;entryDx=0;entryDy=0;fontColor=#FFFFFF;" parent="1" edge="1">
          <mxGeometry width="50" height="50" relative="1" as="geometry">
            <mxPoint x="200" y="50" as="sourcePoint" />
            <mxPoint x="240" y="130" as="targetPoint" />
            <Array as="points">
              <mxPoint x="200" y="130" />
            </Array>
          </mxGeometry>
        </mxCell>
        <mxCell id="gdtWf7uFJ5adirnmfVYU-21" value="" style="endArrow=classic;html=1;rounded=0;entryX=0;entryY=0.5;entryDx=0;entryDy=0;fontColor=#FFFFFF;" parent="1" edge="1">
          <mxGeometry width="50" height="50" relative="1" as="geometry">
            <mxPoint x="200" y="130" as="sourcePoint" />
            <mxPoint x="240" y="170" as="targetPoint" />
            <Array as="points">
              <mxPoint x="200" y="170" />
            </Array>
          </mxGeometry>
        </mxCell>
        <mxCell id="gdtWf7uFJ5adirnmfVYU-22" value="DNSX" style="rounded=0;whiteSpace=wrap;html=1;fillColor=#00cc00;fontColor=#FFFFFF;" parent="1" vertex="1">
          <mxGeometry x="240" y="200" width="120" height="20" as="geometry" />
        </mxCell>
        <mxCell id="gdtWf7uFJ5adirnmfVYU-23" value="" style="endArrow=classic;html=1;rounded=0;entryX=0;entryY=0.5;entryDx=0;entryDy=0;fontColor=#FFFFFF;" parent="1" edge="1">
          <mxGeometry width="50" height="50" relative="1" as="geometry">
            <mxPoint x="200" y="170" as="sourcePoint" />
            <mxPoint x="240" y="210" as="targetPoint" />
            <Array as="points">
              <mxPoint x="200" y="210" />
            </Array>
          </mxGeometry>
        </mxCell>
        <mxCell id="gdtWf7uFJ5adirnmfVYU-24" value="WAYBACKURLS" style="rounded=0;whiteSpace=wrap;html=1;fillColor=#00cc00;fontColor=#FFFFFF;" parent="1" vertex="1">
          <mxGeometry x="240" y="40" width="120" height="20" as="geometry" />
        </mxCell>
        <mxCell id="gdtWf7uFJ5adirnmfVYU-26" value="N12_NUCLEI_XSS" style="rounded=0;whiteSpace=wrap;html=1;fillColor=#7EA6E0;fontColor=#FFFFFF;" parent="1" vertex="1">
          <mxGeometry x="1240" y="670" width="120" height="20" as="geometry" />
        </mxCell>
        <mxCell id="gdtWf7uFJ5adirnmfVYU-27" value="N02_NUCLEI_OPEN_REDIRECT" style="rounded=0;whiteSpace=wrap;html=1;fillColor=#7EA6E0;fontColor=#FFFFFF;" parent="1" vertex="1">
          <mxGeometry x="1900" y="410" width="190" height="20" as="geometry" />
        </mxCell>
        <mxCell id="gdtWf7uFJ5adirnmfVYU-28" value="N03_NUCLEI_IDOR" style="rounded=0;whiteSpace=wrap;html=1;fillColor=#7EA6E0;fontColor=#FFFFFF;" parent="1" vertex="1">
          <mxGeometry x="1900" y="450" width="120" height="20" as="geometry" />
        </mxCell>
        <mxCell id="gdtWf7uFJ5adirnmfVYU-29" value="N15_NUCLEI_SQL_INJECTION" style="rounded=0;whiteSpace=wrap;html=1;fillColor=#7EA6E0;fontColor=#FFFFFF;" parent="1" vertex="1">
          <mxGeometry x="560" y="820" width="180" height="20" as="geometry" />
        </mxCell>
        <mxCell id="gdtWf7uFJ5adirnmfVYU-30" value="N14_NUCLEI_SSRF" style="rounded=0;whiteSpace=wrap;html=1;fillColor=#7EA6E0;fontColor=#FFFFFF;" parent="1" vertex="1">
          <mxGeometry x="1240" y="590" width="120" height="20" as="geometry" />
        </mxCell>
        <mxCell id="gdtWf7uFJ5adirnmfVYU-31" value="N04_NUCLEI_XXE" style="rounded=0;whiteSpace=wrap;html=1;fillColor=#7EA6E0;fontColor=#FFFFFF;" parent="1" vertex="1">
          <mxGeometry x="1900" y="490" width="120" height="20" as="geometry" />
        </mxCell>
        <mxCell id="gdtWf7uFJ5adirnmfVYU-32" value="N13_NUCLEI_TEMPLATE_INJECTION" style="rounded=0;whiteSpace=wrap;html=1;fillColor=#7EA6E0;fontColor=#FFFFFF;fontSize=11;" parent="1" vertex="1">
          <mxGeometry x="560" y="660" width="200" height="20" as="geometry" />
        </mxCell>
        <mxCell id="gdtWf7uFJ5adirnmfVYU-33" value="N05_NUCLEI_RCE" style="rounded=0;whiteSpace=wrap;html=1;fillColor=#7EA6E0;fontColor=#FFFFFF;" parent="1" vertex="1">
          <mxGeometry x="1900" y="530" width="120" height="20" as="geometry" />
        </mxCell>
        <mxCell id="gdtWf7uFJ5adirnmfVYU-34" value="N06_NUCLEI_FILE_INCLUSION" style="rounded=0;whiteSpace=wrap;html=1;fillColor=#7EA6E0;fontColor=#FFFFFF;fontSize=12;" parent="1" vertex="1">
          <mxGeometry x="560" y="780" width="190" height="20" as="geometry" />
        </mxCell>
        <mxCell id="gdtWf7uFJ5adirnmfVYU-35" value="N07_NUCLEI_COOKIE" style="rounded=0;whiteSpace=wrap;html=1;fillColor=#7EA6E0;fontColor=#FFFFFF;" parent="1" vertex="1">
          <mxGeometry x="1900" y="570" width="140" height="20" as="geometry" />
        </mxCell>
        <mxCell id="gdtWf7uFJ5adirnmfVYU-36" value="N08_NUCLEI_OAUTH" style="rounded=0;whiteSpace=wrap;html=1;fillColor=#7EA6E0;fontColor=#FFFFFF;" parent="1" vertex="1">
          <mxGeometry x="1900" y="610" width="130" height="20" as="geometry" />
        </mxCell>
        <mxCell id="gdtWf7uFJ5adirnmfVYU-37" value="N09_NUCLEI_TAKEOVER" style="rounded=0;whiteSpace=wrap;html=1;fillColor=#7EA6E0;fontColor=#FFFFFF;fontSize=12;" parent="1" vertex="1">
          <mxGeometry x="1900" y="650" width="160" height="20" as="geometry" />
        </mxCell>
        <mxCell id="gdtWf7uFJ5adirnmfVYU-38" value="N10_NUCLEI_TRAVERSAL" style="rounded=0;whiteSpace=wrap;html=1;fillColor=#7EA6E0;fontColor=#FFFFFF;fontSize=12;" parent="1" vertex="1">
          <mxGeometry x="1900" y="770" width="160" height="20" as="geometry" />
        </mxCell>
        <mxCell id="gdtWf7uFJ5adirnmfVYU-39" value="N11_NUCLEI_CRLF_INJECTION" style="rounded=0;whiteSpace=wrap;html=1;fillColor=#7EA6E0;fontColor=#FFFFFF;" parent="1" vertex="1">
          <mxGeometry x="1900" y="810" width="190" height="20" as="geometry" />
        </mxCell>
        <mxCell id="gdtWf7uFJ5adirnmfVYU-40" value="" style="endArrow=classic;html=1;rounded=0;exitX=1;exitY=0.5;exitDx=0;exitDy=0;fontColor=#FFFFFF;entryX=0;entryY=0.5;entryDx=0;entryDy=0;" parent="1" source="gdtWf7uFJ5adirnmfVYU-12" target="gdtWf7uFJ5adirnmfVYU-13" edge="1">
          <mxGeometry width="50" height="50" relative="1" as="geometry">
            <mxPoint x="1160" y="169.5" as="sourcePoint" />
            <mxPoint x="1230" y="170" as="targetPoint" />
          </mxGeometry>
        </mxCell>
        <mxCell id="gdtWf7uFJ5adirnmfVYU-41" value="N01_NUCLEI_API" style="rounded=0;whiteSpace=wrap;html=1;fillColor=#7EA6E0;fontColor=#FFFFFF;" parent="1" vertex="1">
          <mxGeometry x="560" y="460" width="120" height="20" as="geometry" />
        </mxCell>
        <mxCell id="gdtWf7uFJ5adirnmfVYU-42" value="V18_XSS_DALFOX" style="rounded=0;whiteSpace=wrap;html=1;fillColor=#FF8000;fontColor=#FFFFFF;" parent="1" vertex="1">
          <mxGeometry x="1300" y="750" width="120" height="20" as="geometry" />
        </mxCell>
        <mxCell id="gdtWf7uFJ5adirnmfVYU-43" value="" style="endArrow=classic;html=1;rounded=0;exitX=1;exitY=0.5;exitDx=0;exitDy=0;entryX=0;entryY=0.5;entryDx=0;entryDy=0;fontColor=#FFFFFF;" parent="1" source="gdtWf7uFJ5adirnmfVYU-44" edge="1">
          <mxGeometry width="50" height="50" relative="1" as="geometry">
            <mxPoint x="1060" y="680" as="sourcePoint" />
            <mxPoint x="1240" y="679.41" as="targetPoint" />
          </mxGeometry>
        </mxCell>
        <mxCell id="gdtWf7uFJ5adirnmfVYU-44" value="V18_XSS" style="rounded=0;whiteSpace=wrap;html=1;fillColor=#000000;fontColor=#FFFFFF;" parent="1" vertex="1">
          <mxGeometry x="1000" y="670" width="120" height="20" as="geometry" />
        </mxCell>
        <mxCell id="gdtWf7uFJ5adirnmfVYU-45" value="" style="endArrow=classic;html=1;rounded=0;entryX=0;entryY=0.5;entryDx=0;entryDy=0;fontColor=#FFFFFF;" parent="1" edge="1">
          <mxGeometry width="50" height="50" relative="1" as="geometry">
            <mxPoint x="1200" y="680" as="sourcePoint" />
            <mxPoint x="1240" y="720" as="targetPoint" />
            <Array as="points">
              <mxPoint x="1200" y="720" />
            </Array>
          </mxGeometry>
        </mxCell>
        <mxCell id="gdtWf7uFJ5adirnmfVYU-46" value="V06_OPEN_REDIRECT" style="rounded=0;whiteSpace=wrap;html=1;fillColor=#000000;fontColor=#FFFFFF;" parent="1" vertex="1">
          <mxGeometry x="1660" y="410" width="140" height="20" as="geometry" />
        </mxCell>
        <mxCell id="gdtWf7uFJ5adirnmfVYU-47" value="" style="endArrow=classic;html=1;rounded=0;fontColor=#FFFFFF;entryX=0;entryY=0.5;entryDx=0;entryDy=0;exitX=1;exitY=0.5;exitDx=0;exitDy=0;" parent="1" source="gdtWf7uFJ5adirnmfVYU-46" edge="1">
          <mxGeometry width="50" height="50" relative="1" as="geometry">
            <mxPoint x="1840" y="420" as="sourcePoint" />
            <mxPoint x="1900" y="420" as="targetPoint" />
          </mxGeometry>
        </mxCell>
        <mxCell id="gdtWf7uFJ5adirnmfVYU-48" value="V07_IDOR" style="rounded=0;whiteSpace=wrap;html=1;fillColor=#000000;fontColor=#FFFFFF;" parent="1" vertex="1">
          <mxGeometry x="1660" y="450" width="120" height="20" as="geometry" />
        </mxCell>
        <mxCell id="gdtWf7uFJ5adirnmfVYU-49" value="V22_SQL_INJECTION" style="rounded=0;whiteSpace=wrap;html=1;fillColor=#000000;fontColor=#FFFFFF;" parent="1" vertex="1">
          <mxGeometry x="320" y="820" width="140" height="20" as="geometry" />
        </mxCell>
        <mxCell id="gdtWf7uFJ5adirnmfVYU-50" value="V20_SSRF" style="rounded=0;whiteSpace=wrap;html=1;fillColor=#000000;fontColor=#FFFFFF;" parent="1" vertex="1">
          <mxGeometry x="1000" y="590" width="120" height="20" as="geometry" />
        </mxCell>
        <mxCell id="gdtWf7uFJ5adirnmfVYU-51" value="V08_XXE" style="rounded=0;whiteSpace=wrap;html=1;fillColor=#000000;fontColor=#FFFFFF;" parent="1" vertex="1">
          <mxGeometry x="1660" y="490" width="120" height="20" as="geometry" />
        </mxCell>
        <mxCell id="gdtWf7uFJ5adirnmfVYU-52" value="V19_TEMPLATE_INJECTION" style="rounded=0;whiteSpace=wrap;html=1;fillColor=#000000;fontColor=#FFFFFF;fontSize=11;" parent="1" vertex="1">
          <mxGeometry x="320" y="660" width="160" height="20" as="geometry" />
        </mxCell>
        <mxCell id="gdtWf7uFJ5adirnmfVYU-53" value="V09_RCE" style="rounded=0;whiteSpace=wrap;html=1;fillColor=#000000;fontColor=#FFFFFF;" parent="1" vertex="1">
          <mxGeometry x="1660" y="530" width="120" height="20" as="geometry" />
        </mxCell>
        <mxCell id="gdtWf7uFJ5adirnmfVYU-54" value="V10_FILE_INCLUSION" style="rounded=0;whiteSpace=wrap;html=1;fillColor=#000000;fontColor=#FFFFFF;" parent="1" vertex="1">
          <mxGeometry x="320" y="780" width="140" height="20" as="geometry" />
        </mxCell>
        <mxCell id="gdtWf7uFJ5adirnmfVYU-55" value="V11_COOKIE" style="rounded=0;whiteSpace=wrap;html=1;fillColor=#000000;fontColor=#FFFFFF;" parent="1" vertex="1">
          <mxGeometry x="1660" y="570" width="120" height="20" as="geometry" />
        </mxCell>
        <mxCell id="gdtWf7uFJ5adirnmfVYU-56" value="V12_OAUTH" style="rounded=0;whiteSpace=wrap;html=1;fillColor=#000000;fontColor=#FFFFFF;" parent="1" vertex="1">
          <mxGeometry x="1660" y="610" width="120" height="20" as="geometry" />
        </mxCell>
        <mxCell id="gdtWf7uFJ5adirnmfVYU-57" value="V13_TAKEOVER" style="rounded=0;whiteSpace=wrap;html=1;fillColor=#000000;fontColor=#FFFFFF;" parent="1" vertex="1">
          <mxGeometry x="1660" y="650" width="120" height="20" as="geometry" />
        </mxCell>
        <mxCell id="gdtWf7uFJ5adirnmfVYU-58" value="V14_TRAVERSAL" style="rounded=0;whiteSpace=wrap;html=1;fillColor=#000000;fontColor=#FFFFFF;" parent="1" vertex="1">
          <mxGeometry x="1660" y="770" width="120" height="20" as="geometry" />
        </mxCell>
        <mxCell id="gdtWf7uFJ5adirnmfVYU-59" value="V15_CRLF_INJECTION" style="rounded=0;whiteSpace=wrap;html=1;fillColor=#000000;fontColor=#FFFFFF;" parent="1" vertex="1">
          <mxGeometry x="1660" y="810" width="140" height="20" as="geometry" />
        </mxCell>
        <mxCell id="gdtWf7uFJ5adirnmfVYU-60" value="" style="endArrow=classic;html=1;rounded=0;exitX=1;exitY=0.5;exitDx=0;exitDy=0;fontColor=#FFFFFF;entryX=0;entryY=0.5;entryDx=0;entryDy=0;" parent="1" source="gdtWf7uFJ5adirnmfVYU-48" target="gdtWf7uFJ5adirnmfVYU-28" edge="1">
          <mxGeometry width="50" height="50" relative="1" as="geometry">
            <mxPoint x="1820" y="460" as="sourcePoint" />
            <mxPoint x="1880" y="460" as="targetPoint" />
          </mxGeometry>
        </mxCell>
        <mxCell id="gdtWf7uFJ5adirnmfVYU-61" value="" style="endArrow=classic;html=1;rounded=0;fontColor=#FFFFFF;" parent="1" edge="1">
          <mxGeometry width="50" height="50" relative="1" as="geometry">
            <mxPoint x="460" y="830" as="sourcePoint" />
            <mxPoint x="560" y="830" as="targetPoint" />
          </mxGeometry>
        </mxCell>
        <mxCell id="gdtWf7uFJ5adirnmfVYU-62" value="" style="endArrow=classic;html=1;rounded=0;fontColor=#FFFFFF;entryX=0;entryY=0.5;entryDx=0;entryDy=0;" parent="1" target="gdtWf7uFJ5adirnmfVYU-30" edge="1">
          <mxGeometry width="50" height="50" relative="1" as="geometry">
            <mxPoint x="1120" y="600" as="sourcePoint" />
            <mxPoint x="1210" y="600" as="targetPoint" />
          </mxGeometry>
        </mxCell>
        <mxCell id="gdtWf7uFJ5adirnmfVYU-63" value="" style="endArrow=classic;html=1;rounded=0;exitX=1;exitY=0.5;exitDx=0;exitDy=0;fontColor=#FFFFFF;entryX=0;entryY=0.5;entryDx=0;entryDy=0;" parent="1" source="gdtWf7uFJ5adirnmfVYU-55" edge="1">
          <mxGeometry width="50" height="50" relative="1" as="geometry">
            <mxPoint x="1820" y="579.5799999999999" as="sourcePoint" />
            <mxPoint x="1900" y="580" as="targetPoint" />
          </mxGeometry>
        </mxCell>
        <mxCell id="gdtWf7uFJ5adirnmfVYU-64" value="" style="endArrow=classic;html=1;rounded=0;exitX=1;exitY=0.5;exitDx=0;exitDy=0;fontColor=#FFFFFF;entryX=0;entryY=0.5;entryDx=0;entryDy=0;" parent="1" source="gdtWf7uFJ5adirnmfVYU-56" edge="1">
          <mxGeometry width="50" height="50" relative="1" as="geometry">
            <mxPoint x="1820" y="619.5799999999999" as="sourcePoint" />
            <mxPoint x="1900" y="620" as="targetPoint" />
          </mxGeometry>
        </mxCell>
        <mxCell id="gdtWf7uFJ5adirnmfVYU-65" value="" style="endArrow=classic;html=1;rounded=0;exitX=1;exitY=0.5;exitDx=0;exitDy=0;fontColor=#FFFFFF;entryX=0;entryY=0.5;entryDx=0;entryDy=0;" parent="1" source="gdtWf7uFJ5adirnmfVYU-57" edge="1">
          <mxGeometry width="50" height="50" relative="1" as="geometry">
            <mxPoint x="1820" y="659.5799999999999" as="sourcePoint" />
            <mxPoint x="1900" y="660" as="targetPoint" />
          </mxGeometry>
        </mxCell>
        <mxCell id="gdtWf7uFJ5adirnmfVYU-66" value="" style="endArrow=classic;html=1;rounded=0;exitX=1;exitY=0.5;exitDx=0;exitDy=0;fontColor=#FFFFFF;entryX=0;entryY=0.5;entryDx=0;entryDy=0;" parent="1" source="gdtWf7uFJ5adirnmfVYU-58" edge="1">
          <mxGeometry width="50" height="50" relative="1" as="geometry">
            <mxPoint x="1820" y="779.5799999999999" as="sourcePoint" />
            <mxPoint x="1900" y="780" as="targetPoint" />
          </mxGeometry>
        </mxCell>
        <mxCell id="gdtWf7uFJ5adirnmfVYU-67" value="" style="endArrow=classic;html=1;rounded=0;exitX=1;exitY=0.5;exitDx=0;exitDy=0;fontColor=#FFFFFF;" parent="1" source="gdtWf7uFJ5adirnmfVYU-59" edge="1">
          <mxGeometry width="50" height="50" relative="1" as="geometry">
            <mxPoint x="1840" y="819.5799999999999" as="sourcePoint" />
            <mxPoint x="1900" y="820" as="targetPoint" />
          </mxGeometry>
        </mxCell>
        <mxCell id="gdtWf7uFJ5adirnmfVYU-68" value="V18_XSS_XSSTRIKE" style="rounded=0;whiteSpace=wrap;html=1;fillColor=#FF8000;fontColor=#FFFFFF;" parent="1" vertex="1">
          <mxGeometry x="1300" y="790" width="120" height="20" as="geometry" />
        </mxCell>
        <mxCell id="gdtWf7uFJ5adirnmfVYU-69" value="" style="endArrow=classic;html=1;rounded=0;fontColor=#FFFFFF;entryX=0;entryY=0.5;entryDx=0;entryDy=0;" parent="1" edge="1">
          <mxGeometry width="50" height="50" relative="1" as="geometry">
            <mxPoint x="480" y="670" as="sourcePoint" />
            <mxPoint x="560" y="670" as="targetPoint" />
          </mxGeometry>
        </mxCell>
        <mxCell id="gdtWf7uFJ5adirnmfVYU-70" value="V01_CORS" style="rounded=0;whiteSpace=wrap;html=1;fillColor=#000000;fontColor=#FFFFFF;" parent="1" vertex="1">
          <mxGeometry x="1000" y="430" width="120" height="20" as="geometry" />
        </mxCell>
        <mxCell id="gdtWf7uFJ5adirnmfVYU-71" value="V01_CORS_MISCONFIGURATION_SPYHUNT" style="rounded=0;whiteSpace=wrap;html=1;fillColor=#FF8000;fontColor=#FFFFFF;fontSize=10;" parent="1" vertex="1">
          <mxGeometry x="1240" y="430" width="220" height="20" as="geometry" />
        </mxCell>
        <mxCell id="gdtWf7uFJ5adirnmfVYU-72" value="V16_403_BYPASS" style="rounded=0;whiteSpace=wrap;html=1;fillColor=#000000;fontColor=#FFFFFF;" parent="1" vertex="1">
          <mxGeometry x="1660" y="850" width="120" height="20" as="geometry" />
        </mxCell>
        <mxCell id="gdtWf7uFJ5adirnmfVYU-74" value="" style="endArrow=classic;html=1;rounded=0;exitX=1;exitY=0.5;exitDx=0;exitDy=0;fontColor=#FFFFFF;entryX=0;entryY=0.5;entryDx=0;entryDy=0;" parent="1" source="gdtWf7uFJ5adirnmfVYU-72" edge="1">
          <mxGeometry width="50" height="50" relative="1" as="geometry">
            <mxPoint x="1820" y="859.5799999999999" as="sourcePoint" />
            <mxPoint x="1900" y="860" as="targetPoint" />
          </mxGeometry>
        </mxCell>
        <mxCell id="gdtWf7uFJ5adirnmfVYU-75" value="V02_HOST_HEADER_INJECTION" style="rounded=0;whiteSpace=wrap;html=1;fillColor=#000000;fontColor=#FFFFFF;fontSize=10;" parent="1" vertex="1">
          <mxGeometry x="320" y="420" width="160" height="20" as="geometry" />
        </mxCell>
        <mxCell id="gdtWf7uFJ5adirnmfVYU-76" value="&lt;font style=&quot;font-size: 11px;&quot;&gt;V02_HOST_HEADER_INJECTION_FFUF&lt;/font&gt;" style="rounded=0;whiteSpace=wrap;html=1;fillColor=#FF8000;fontColor=#FFFFFF;fontSize=10;" parent="1" vertex="1">
          <mxGeometry x="560" y="420" width="220" height="20" as="geometry" />
        </mxCell>
        <mxCell id="gdtWf7uFJ5adirnmfVYU-77" value="V17_FAVICON" style="rounded=0;whiteSpace=wrap;html=1;fillColor=#000000;fontColor=#FFFFFF;" parent="1" vertex="1">
          <mxGeometry x="1660" y="890" width="120" height="20" as="geometry" />
        </mxCell>
        <mxCell id="gdtWf7uFJ5adirnmfVYU-78" value="V17_FAVICON_FAVFREAK" style="rounded=0;whiteSpace=wrap;html=1;fillColor=#FF8000;fontColor=#FFFFFF;" parent="1" vertex="1">
          <mxGeometry x="1900" y="890" width="160" height="20" as="geometry" />
        </mxCell>
        <mxCell id="gdtWf7uFJ5adirnmfVYU-79" value="" style="endArrow=classic;html=1;rounded=0;exitX=1;exitY=0.5;exitDx=0;exitDy=0;fontColor=#FFFFFF;entryX=0;entryY=0.5;entryDx=0;entryDy=0;" parent="1" source="gdtWf7uFJ5adirnmfVYU-77" edge="1">
          <mxGeometry width="50" height="50" relative="1" as="geometry">
            <mxPoint x="1820" y="899.76" as="sourcePoint" />
            <mxPoint x="1900" y="900.1800000000001" as="targetPoint" />
          </mxGeometry>
        </mxCell>
        <mxCell id="gdtWf7uFJ5adirnmfVYU-80" value="V22_SQL_INJECTION_GHAURI" style="rounded=0;whiteSpace=wrap;html=1;fillColor=#FF8000;fontColor=#FFFFFF;" parent="1" vertex="1">
          <mxGeometry x="560" y="860" width="190" height="20" as="geometry" />
        </mxCell>
        <mxCell id="gdtWf7uFJ5adirnmfVYU-81" value="V20_SSRF_SURF" style="rounded=0;whiteSpace=wrap;html=1;fillColor=#FF8000;fontColor=#FFFFFF;" parent="1" vertex="1">
          <mxGeometry x="1240" y="630" width="120" height="20" as="geometry" />
        </mxCell>
        <mxCell id="gdtWf7uFJ5adirnmfVYU-82" value="" style="endArrow=classic;html=1;rounded=0;fontColor=#FFFFFF;entryX=0;entryY=0.5;entryDx=0;entryDy=0;" parent="1" edge="1">
          <mxGeometry width="50" height="50" relative="1" as="geometry">
            <mxPoint x="1200" y="600" as="sourcePoint" />
            <mxPoint x="1240" y="640" as="targetPoint" />
            <Array as="points">
              <mxPoint x="1200" y="640" />
            </Array>
          </mxGeometry>
        </mxCell>
        <mxCell id="gdtWf7uFJ5adirnmfVYU-83" value="V19_TEMPLATE_INJECTION_TINJA" style="rounded=0;whiteSpace=wrap;html=1;fillColor=#FF8000;fontColor=#FFFFFF;fontSize=11;" parent="1" vertex="1">
          <mxGeometry x="560" y="700" width="190" height="20" as="geometry" />
        </mxCell>
        <mxCell id="gdtWf7uFJ5adirnmfVYU-84" value="" style="endArrow=classic;html=1;rounded=0;fontColor=#FFFFFF;entryX=0;entryY=0.5;entryDx=0;entryDy=0;" parent="1" edge="1">
          <mxGeometry width="50" height="50" relative="1" as="geometry">
            <mxPoint x="520" y="670" as="sourcePoint" />
            <mxPoint x="560" y="710" as="targetPoint" />
            <Array as="points">
              <mxPoint x="520" y="710" />
            </Array>
          </mxGeometry>
        </mxCell>
        <mxCell id="gdtWf7uFJ5adirnmfVYU-85" value="" style="endArrow=classic;html=1;rounded=0;fontColor=#FFFFFF;entryX=0;entryY=0.5;entryDx=0;entryDy=0;" parent="1" edge="1">
          <mxGeometry width="50" height="50" relative="1" as="geometry">
            <mxPoint x="520" y="830" as="sourcePoint" />
            <mxPoint x="560" y="870" as="targetPoint" />
            <Array as="points">
              <mxPoint x="520" y="870" />
            </Array>
          </mxGeometry>
        </mxCell>
        <mxCell id="gdtWf7uFJ5adirnmfVYU-86" value="V01_CORS_CORSY" style="rounded=0;whiteSpace=wrap;html=1;fillColor=#FF8000;fontColor=#FFFFFF;" parent="1" vertex="1">
          <mxGeometry x="1240" y="470" width="120" height="20" as="geometry" />
        </mxCell>
        <mxCell id="gdtWf7uFJ5adirnmfVYU-87" value="V03_CSRF" style="rounded=0;whiteSpace=wrap;html=1;fillColor=#000000;fontColor=#FFFFFF;" parent="1" vertex="1">
          <mxGeometry x="1000" y="510" width="120" height="20" as="geometry" />
        </mxCell>
        <mxCell id="gdtWf7uFJ5adirnmfVYU-88" value="V03_CSRF_XSRFPROBE" style="rounded=0;whiteSpace=wrap;html=1;fillColor=#FF8000;fontColor=#FFFFFF;" parent="1" vertex="1">
          <mxGeometry x="1240" y="510" width="150" height="20" as="geometry" />
        </mxCell>
        <mxCell id="gdtWf7uFJ5adirnmfVYU-89" value="N01_NUCLEI_GRAPHQL" style="rounded=0;whiteSpace=wrap;html=1;fillColor=#7EA6E0;fontColor=#FFFFFF;" parent="1" vertex="1">
          <mxGeometry x="560" y="500" width="140" height="20" as="geometry" />
        </mxCell>
        <mxCell id="gdtWf7uFJ5adirnmfVYU-90" value="V05_API_GRAPHW00F" style="rounded=0;whiteSpace=wrap;html=1;fillColor=#FF8000;fontColor=#FFFFFF;" parent="1" vertex="1">
          <mxGeometry x="620" y="620" width="140" height="20" as="geometry" />
        </mxCell>
        <mxCell id="gdtWf7uFJ5adirnmfVYU-91" value="V05_API_GRAPHQL_ENDPOINTS" style="rounded=0;whiteSpace=wrap;html=1;fillColor=#FF8000;fontColor=#FFFFFF;" parent="1" vertex="1">
          <mxGeometry x="560" y="540" width="200" height="20" as="geometry" />
        </mxCell>
        <mxCell id="gdtWf7uFJ5adirnmfVYU-95" value="V04_REQUEST_SMUGGLING" style="rounded=0;whiteSpace=wrap;html=1;fillColor=#000000;fontColor=#FFFFFF;fontSize=10;" parent="1" vertex="1">
          <mxGeometry x="1000" y="550" width="140" height="20" as="geometry" />
        </mxCell>
        <mxCell id="gdtWf7uFJ5adirnmfVYU-99" value="" style="endArrow=classic;html=1;rounded=0;exitX=1;exitY=0.5;exitDx=0;exitDy=0;fontColor=#FFFFFF;entryX=0.436;entryY=-0.064;entryDx=0;entryDy=0;entryPerimeter=0;" parent="1" target="gdtWf7uFJ5adirnmfVYU-13" edge="1">
          <mxGeometry width="50" height="50" relative="1" as="geometry">
            <mxPoint x="360" y="49.56999999999999" as="sourcePoint" />
            <mxPoint x="1300" y="-20" as="targetPoint" />
            <Array as="points">
              <mxPoint x="1100" y="50" />
            </Array>
          </mxGeometry>
        </mxCell>
        <mxCell id="gdtWf7uFJ5adirnmfVYU-101" value="" style="endArrow=classic;html=1;rounded=0;entryX=0;entryY=0.5;entryDx=0;entryDy=0;fontColor=#FFFFFF;" parent="1" edge="1">
          <mxGeometry width="50" height="50" relative="1" as="geometry">
            <mxPoint x="1200" y="440" as="sourcePoint" />
            <mxPoint x="1240" y="480" as="targetPoint" />
            <Array as="points">
              <mxPoint x="1200" y="480" />
            </Array>
          </mxGeometry>
        </mxCell>
        <mxCell id="gdtWf7uFJ5adirnmfVYU-102" value="" style="endArrow=classic;html=1;rounded=0;entryX=0;entryY=0.5;entryDx=0;entryDy=0;fontColor=#FFFFFF;exitX=1;exitY=0.5;exitDx=0;exitDy=0;" parent="1" target="gdtWf7uFJ5adirnmfVYU-75" edge="1">
          <mxGeometry width="50" height="50" relative="1" as="geometry">
            <mxPoint x="260" y="380" as="sourcePoint" />
            <mxPoint x="320" y="470" as="targetPoint" />
            <Array as="points">
              <mxPoint x="280" y="380" />
              <mxPoint x="280" y="430" />
            </Array>
          </mxGeometry>
        </mxCell>
        <mxCell id="gdtWf7uFJ5adirnmfVYU-103" value="" style="endArrow=classic;html=1;rounded=0;fontColor=#FFFFFF;" parent="1" edge="1">
          <mxGeometry width="50" height="50" relative="1" as="geometry">
            <mxPoint x="960" y="440" as="sourcePoint" />
            <mxPoint x="1000" y="520" as="targetPoint" />
            <Array as="points">
              <mxPoint x="960" y="520" />
            </Array>
          </mxGeometry>
        </mxCell>
        <mxCell id="gdtWf7uFJ5adirnmfVYU-104" value="" style="endArrow=classic;html=1;rounded=0;entryX=0;entryY=0.5;entryDx=0;entryDy=0;fontColor=#FFFFFF;" parent="1" edge="1">
          <mxGeometry width="50" height="50" relative="1" as="geometry">
            <mxPoint x="960" y="520" as="sourcePoint" />
            <mxPoint x="1000" y="560" as="targetPoint" />
            <Array as="points">
              <mxPoint x="960" y="560" />
            </Array>
          </mxGeometry>
        </mxCell>
        <mxCell id="gdtWf7uFJ5adirnmfVYU-105" value="" style="endArrow=classic;html=1;rounded=0;exitX=1;exitY=0.5;exitDx=0;exitDy=0;entryX=0;entryY=0.5;entryDx=0;entryDy=0;fontColor=#FFFFFF;" parent="1" source="gdtWf7uFJ5adirnmfVYU-70" edge="1">
          <mxGeometry width="50" height="50" relative="1" as="geometry">
            <mxPoint x="1160" y="439.65999999999997" as="sourcePoint" />
            <mxPoint x="1240" y="439.65999999999997" as="targetPoint" />
          </mxGeometry>
        </mxCell>
        <mxCell id="gdtWf7uFJ5adirnmfVYU-106" value="" style="endArrow=classic;html=1;rounded=0;fontColor=#FFFFFF;" parent="1" edge="1">
          <mxGeometry width="50" height="50" relative="1" as="geometry">
            <mxPoint x="480" y="430" as="sourcePoint" />
            <mxPoint x="560" y="430" as="targetPoint" />
          </mxGeometry>
        </mxCell>
        <mxCell id="gdtWf7uFJ5adirnmfVYU-107" value="" style="endArrow=classic;html=1;rounded=0;entryX=0;entryY=0.5;entryDx=0;entryDy=0;fontColor=#FFFFFF;" parent="1" edge="1">
          <mxGeometry width="50" height="50" relative="1" as="geometry">
            <mxPoint x="1120" y="520" as="sourcePoint" />
            <mxPoint x="1240" y="519.58" as="targetPoint" />
          </mxGeometry>
        </mxCell>
        <mxCell id="gdtWf7uFJ5adirnmfVYU-108" value="" style="endArrow=classic;html=1;rounded=0;fontColor=#FFFFFF;" parent="1" edge="1">
          <mxGeometry width="50" height="50" relative="1" as="geometry">
            <mxPoint x="1140" y="560" as="sourcePoint" />
            <mxPoint x="1240" y="560" as="targetPoint" />
          </mxGeometry>
        </mxCell>
        <mxCell id="gdtWf7uFJ5adirnmfVYU-109" value="V05_API" style="rounded=0;whiteSpace=wrap;html=1;fillColor=#000000;fontColor=#FFFFFF;" parent="1" vertex="1">
          <mxGeometry x="320" y="460" width="120" height="20" as="geometry" />
        </mxCell>
        <mxCell id="gdtWf7uFJ5adirnmfVYU-113" value="CLUSTER1" style="rounded=0;whiteSpace=wrap;html=1;fillColor=#666666;fontColor=#FFFFFF;" parent="1" vertex="1">
          <mxGeometry x="140" y="370" width="120" height="20" as="geometry" />
        </mxCell>
        <mxCell id="gdtWf7uFJ5adirnmfVYU-114" value="" style="endArrow=classic;html=1;rounded=0;entryX=0;entryY=0.5;entryDx=0;entryDy=0;fontColor=#FFFFFF;" parent="1" edge="1">
          <mxGeometry width="50" height="50" relative="1" as="geometry">
            <mxPoint x="1620" y="420" as="sourcePoint" />
            <mxPoint x="1660" y="460" as="targetPoint" />
            <Array as="points">
              <mxPoint x="1620" y="460" />
            </Array>
          </mxGeometry>
        </mxCell>
        <mxCell id="gdtWf7uFJ5adirnmfVYU-115" value="" style="endArrow=classic;html=1;rounded=0;entryX=0;entryY=0.5;entryDx=0;entryDy=0;fontColor=#FFFFFF;" parent="1" edge="1">
          <mxGeometry width="50" height="50" relative="1" as="geometry">
            <mxPoint x="1620" y="460" as="sourcePoint" />
            <mxPoint x="1660" y="500" as="targetPoint" />
            <Array as="points">
              <mxPoint x="1620" y="500" />
            </Array>
          </mxGeometry>
        </mxCell>
        <mxCell id="gdtWf7uFJ5adirnmfVYU-116" value="" style="endArrow=classic;html=1;rounded=0;exitX=1;exitY=0.5;exitDx=0;exitDy=0;fontColor=#FFFFFF;entryX=0;entryY=0.5;entryDx=0;entryDy=0;" parent="1" source="gdtWf7uFJ5adirnmfVYU-51" edge="1">
          <mxGeometry width="50" height="50" relative="1" as="geometry">
            <mxPoint x="1820" y="499.52" as="sourcePoint" />
            <mxPoint x="1900" y="499.52" as="targetPoint" />
          </mxGeometry>
        </mxCell>
        <mxCell id="gdtWf7uFJ5adirnmfVYU-117" value="" style="endArrow=classic;html=1;rounded=0;entryX=0;entryY=0.5;entryDx=0;entryDy=0;fontColor=#FFFFFF;" parent="1" edge="1">
          <mxGeometry width="50" height="50" relative="1" as="geometry">
            <mxPoint x="1620" y="500" as="sourcePoint" />
            <mxPoint x="1660" y="540" as="targetPoint" />
            <Array as="points">
              <mxPoint x="1620" y="540" />
            </Array>
          </mxGeometry>
        </mxCell>
        <mxCell id="gdtWf7uFJ5adirnmfVYU-118" value="" style="endArrow=classic;html=1;rounded=0;exitX=1;exitY=0.5;exitDx=0;exitDy=0;fontColor=#FFFFFF;entryX=0;entryY=0.5;entryDx=0;entryDy=0;" parent="1" source="gdtWf7uFJ5adirnmfVYU-53" edge="1">
          <mxGeometry width="50" height="50" relative="1" as="geometry">
            <mxPoint x="1820" y="540" as="sourcePoint" />
            <mxPoint x="1900" y="540" as="targetPoint" />
          </mxGeometry>
        </mxCell>
        <mxCell id="gdtWf7uFJ5adirnmfVYU-120" value="" style="endArrow=classic;html=1;rounded=0;fontColor=#FFFFFF;entryX=0;entryY=0.5;entryDx=0;entryDy=0;exitX=1;exitY=0.5;exitDx=0;exitDy=0;" parent="1" source="gdtWf7uFJ5adirnmfVYU-54" edge="1">
          <mxGeometry width="50" height="50" relative="1" as="geometry">
            <mxPoint x="500" y="789.1700000000001" as="sourcePoint" />
            <mxPoint x="560" y="789.1700000000001" as="targetPoint" />
          </mxGeometry>
        </mxCell>
        <mxCell id="gdtWf7uFJ5adirnmfVYU-121" value="" style="endArrow=classic;html=1;rounded=0;entryX=0;entryY=0.5;entryDx=0;entryDy=0;fontColor=#FFFFFF;" parent="1" edge="1">
          <mxGeometry width="50" height="50" relative="1" as="geometry">
            <mxPoint x="1620" y="540" as="sourcePoint" />
            <mxPoint x="1660" y="580" as="targetPoint" />
            <Array as="points">
              <mxPoint x="1620" y="580" />
            </Array>
          </mxGeometry>
        </mxCell>
        <mxCell id="gdtWf7uFJ5adirnmfVYU-122" value="" style="endArrow=classic;html=1;rounded=0;entryX=0;entryY=0.5;entryDx=0;entryDy=0;fontColor=#FFFFFF;" parent="1" edge="1">
          <mxGeometry width="50" height="50" relative="1" as="geometry">
            <mxPoint x="1620" y="580" as="sourcePoint" />
            <mxPoint x="1660" y="620" as="targetPoint" />
            <Array as="points">
              <mxPoint x="1620" y="620" />
            </Array>
          </mxGeometry>
        </mxCell>
        <mxCell id="gdtWf7uFJ5adirnmfVYU-123" value="" style="endArrow=classic;html=1;rounded=0;entryX=0;entryY=0.5;entryDx=0;entryDy=0;fontColor=#FFFFFF;" parent="1" edge="1">
          <mxGeometry width="50" height="50" relative="1" as="geometry">
            <mxPoint x="1620" y="620" as="sourcePoint" />
            <mxPoint x="1660" y="660" as="targetPoint" />
            <Array as="points">
              <mxPoint x="1620" y="660" />
            </Array>
          </mxGeometry>
        </mxCell>
        <mxCell id="gdtWf7uFJ5adirnmfVYU-124" value="" style="endArrow=classic;html=1;rounded=0;entryX=0;entryY=0.5;entryDx=0;entryDy=0;fontColor=#FFFFFF;" parent="1" edge="1">
          <mxGeometry width="50" height="50" relative="1" as="geometry">
            <mxPoint x="1620" y="780" as="sourcePoint" />
            <mxPoint x="1660" y="820" as="targetPoint" />
            <Array as="points">
              <mxPoint x="1620" y="820" />
            </Array>
          </mxGeometry>
        </mxCell>
        <mxCell id="gdtWf7uFJ5adirnmfVYU-125" value="" style="endArrow=classic;html=1;rounded=0;entryX=0;entryY=0.5;entryDx=0;entryDy=0;fontColor=#FFFFFF;" parent="1" edge="1">
          <mxGeometry width="50" height="50" relative="1" as="geometry">
            <mxPoint x="1620" y="820" as="sourcePoint" />
            <mxPoint x="1660" y="860" as="targetPoint" />
            <Array as="points">
              <mxPoint x="1620" y="860" />
            </Array>
          </mxGeometry>
        </mxCell>
        <mxCell id="gdtWf7uFJ5adirnmfVYU-127" value="CLUSTER2" style="rounded=0;whiteSpace=wrap;html=1;fillColor=#666666;fontColor=#FFFFFF;" parent="1" vertex="1">
          <mxGeometry x="820" y="370" width="120" height="20" as="geometry" />
        </mxCell>
        <mxCell id="gdtWf7uFJ5adirnmfVYU-132" value="V18_XSS_GXSS" style="rounded=0;whiteSpace=wrap;html=1;fillColor=#FF8000;fontColor=#FFFFFF;" parent="1" vertex="1">
          <mxGeometry x="1240" y="710" width="120" height="20" as="geometry" />
        </mxCell>
        <mxCell id="gdtWf7uFJ5adirnmfVYU-134" value="" style="endArrow=classic;html=1;rounded=0;entryX=0;entryY=0.5;entryDx=0;entryDy=0;fontColor=#FFFFFF;" parent="1" target="gdtWf7uFJ5adirnmfVYU-52" edge="1">
          <mxGeometry width="50" height="50" relative="1" as="geometry">
            <mxPoint x="280" y="470" as="sourcePoint" />
            <mxPoint x="320" y="630" as="targetPoint" />
            <Array as="points">
              <mxPoint x="280" y="670" />
            </Array>
          </mxGeometry>
        </mxCell>
        <mxCell id="gdtWf7uFJ5adirnmfVYU-135" value="&lt;div&gt;FINAL_DATA_VERSION&lt;/div&gt;" style="rounded=0;whiteSpace=wrap;html=1;fillColor=#00cc00;strokeColor=#000000;strokeWidth=1;fontColor=#FFFFFF;" parent="1" vertex="1">
          <mxGeometry x="40" y="320" width="140" height="20" as="geometry" />
        </mxCell>
        <mxCell id="gdtWf7uFJ5adirnmfVYU-136" value="" style="endArrow=classic;html=1;rounded=0;entryX=0;entryY=0.5;entryDx=0;entryDy=0;fontColor=#FFFFFF;exitX=1;exitY=0.5;exitDx=0;exitDy=0;" parent="1" source="gdtWf7uFJ5adirnmfVYU-139" edge="1">
          <mxGeometry width="50" height="50" relative="1" as="geometry">
            <mxPoint x="1620" y="380" as="sourcePoint" />
            <mxPoint x="1660" y="420" as="targetPoint" />
            <Array as="points">
              <mxPoint x="1620" y="380" />
              <mxPoint x="1620" y="420" />
            </Array>
          </mxGeometry>
        </mxCell>
        <mxCell id="gdtWf7uFJ5adirnmfVYU-139" value="CLUSTER3" style="rounded=0;whiteSpace=wrap;html=1;fillColor=#666666;fontColor=#FFFFFF;" parent="1" vertex="1">
          <mxGeometry x="1460" y="370" width="120" height="20" as="geometry" />
        </mxCell>
        <mxCell id="gdtWf7uFJ5adirnmfVYU-140" value="" style="endArrow=classic;html=1;rounded=0;entryX=0;entryY=0.5;entryDx=0;entryDy=0;fontColor=#FFFFFF;exitX=1;exitY=0.5;exitDx=0;exitDy=0;" parent="1" edge="1">
          <mxGeometry width="50" height="50" relative="1" as="geometry">
            <mxPoint x="2260" y="370" as="sourcePoint" />
            <mxPoint x="2320" y="420" as="targetPoint" />
            <Array as="points">
              <mxPoint x="2280" y="370" />
              <mxPoint x="2280" y="420" />
            </Array>
          </mxGeometry>
        </mxCell>
        <mxCell id="gdtWf7uFJ5adirnmfVYU-141" value="N16_NUCLEI_HTTP_CNVD" style="rounded=0;whiteSpace=wrap;html=1;fillColor=#7EA6E0;fontColor=#FFFFFF;" parent="1" vertex="1">
          <mxGeometry x="2320" y="410" width="160" height="20" as="geometry" />
        </mxCell>
        <mxCell id="gdtWf7uFJ5adirnmfVYU-142" value="N17_NUCLEI_HTTP_CVES" style="rounded=0;whiteSpace=wrap;html=1;fillColor=#7EA6E0;fontColor=#FFFFFF;" parent="1" vertex="1">
          <mxGeometry x="2320" y="450" width="160" height="20" as="geometry" />
        </mxCell>
        <mxCell id="gdtWf7uFJ5adirnmfVYU-143" value="" style="endArrow=classic;html=1;rounded=0;entryX=0;entryY=0.5;entryDx=0;entryDy=0;fontColor=#FFFFFF;" parent="1" edge="1">
          <mxGeometry width="50" height="50" relative="1" as="geometry">
            <mxPoint x="2280" y="420" as="sourcePoint" />
            <mxPoint x="2320" y="460" as="targetPoint" />
            <Array as="points">
              <mxPoint x="2280" y="460" />
            </Array>
          </mxGeometry>
        </mxCell>
        <mxCell id="gdtWf7uFJ5adirnmfVYU-144" value="N18_NUCLEI_HTTP_DEFAULT_LOGINS" style="rounded=0;whiteSpace=wrap;html=1;fillColor=#7EA6E0;fontColor=#FFFFFF;" parent="1" vertex="1">
          <mxGeometry x="2320" y="490" width="230" height="20" as="geometry" />
        </mxCell>
        <mxCell id="gdtWf7uFJ5adirnmfVYU-145" value="" style="endArrow=classic;html=1;rounded=0;entryX=0;entryY=0.5;entryDx=0;entryDy=0;fontColor=#FFFFFF;" parent="1" edge="1">
          <mxGeometry width="50" height="50" relative="1" as="geometry">
            <mxPoint x="2280" y="460" as="sourcePoint" />
            <mxPoint x="2320" y="500" as="targetPoint" />
            <Array as="points">
              <mxPoint x="2280" y="500" />
            </Array>
          </mxGeometry>
        </mxCell>
        <mxCell id="gdtWf7uFJ5adirnmfVYU-146" value="N19_NUCLEI_HTTP_EXPOSED_PANELS" style="rounded=0;whiteSpace=wrap;html=1;fillColor=#7EA6E0;fontColor=#FFFFFF;" parent="1" vertex="1">
          <mxGeometry x="2320" y="530" width="240" height="20" as="geometry" />
        </mxCell>
        <mxCell id="gdtWf7uFJ5adirnmfVYU-147" value="" style="endArrow=classic;html=1;rounded=0;entryX=0;entryY=0.5;entryDx=0;entryDy=0;fontColor=#FFFFFF;" parent="1" edge="1">
          <mxGeometry width="50" height="50" relative="1" as="geometry">
            <mxPoint x="2280" y="500" as="sourcePoint" />
            <mxPoint x="2320" y="540" as="targetPoint" />
            <Array as="points">
              <mxPoint x="2280" y="540" />
            </Array>
          </mxGeometry>
        </mxCell>
        <mxCell id="gdtWf7uFJ5adirnmfVYU-148" value="N20_NUCLEI_HTTP_EXPOSURES" style="rounded=0;whiteSpace=wrap;html=1;fillColor=#7EA6E0;fontColor=#FFFFFF;" parent="1" vertex="1">
          <mxGeometry x="2320" y="570" width="200" height="20" as="geometry" />
        </mxCell>
        <mxCell id="gdtWf7uFJ5adirnmfVYU-149" value="" style="endArrow=classic;html=1;rounded=0;entryX=0;entryY=0.5;entryDx=0;entryDy=0;fontColor=#FFFFFF;" parent="1" edge="1">
          <mxGeometry width="50" height="50" relative="1" as="geometry">
            <mxPoint x="2280" y="540" as="sourcePoint" />
            <mxPoint x="2320" y="580" as="targetPoint" />
            <Array as="points">
              <mxPoint x="2280" y="580" />
            </Array>
          </mxGeometry>
        </mxCell>
        <mxCell id="gdtWf7uFJ5adirnmfVYU-150" value="N21_NUCLEI_HTTP_MISCONFIGURATION" style="rounded=0;whiteSpace=wrap;html=1;fillColor=#7EA6E0;fontColor=#FFFFFF;" parent="1" vertex="1">
          <mxGeometry x="2320" y="610" width="250" height="20" as="geometry" />
        </mxCell>
        <mxCell id="gdtWf7uFJ5adirnmfVYU-151" value="" style="endArrow=classic;html=1;rounded=0;entryX=0;entryY=0.5;entryDx=0;entryDy=0;fontColor=#FFFFFF;" parent="1" edge="1">
          <mxGeometry width="50" height="50" relative="1" as="geometry">
            <mxPoint x="2280" y="580" as="sourcePoint" />
            <mxPoint x="2320" y="620" as="targetPoint" />
            <Array as="points">
              <mxPoint x="2280" y="620" />
            </Array>
          </mxGeometry>
        </mxCell>
        <mxCell id="gdtWf7uFJ5adirnmfVYU-152" value="N22_NUCLEI_HTTP_TECHNOLOGIES" style="rounded=0;whiteSpace=wrap;html=1;fillColor=#7EA6E0;fontColor=#FFFFFF;" parent="1" vertex="1">
          <mxGeometry x="2320" y="650" width="230" height="20" as="geometry" />
        </mxCell>
        <mxCell id="gdtWf7uFJ5adirnmfVYU-153" value="" style="endArrow=classic;html=1;rounded=0;entryX=0;entryY=0.5;entryDx=0;entryDy=0;fontColor=#FFFFFF;" parent="1" edge="1">
          <mxGeometry width="50" height="50" relative="1" as="geometry">
            <mxPoint x="2280" y="620" as="sourcePoint" />
            <mxPoint x="2320" y="660" as="targetPoint" />
            <Array as="points">
              <mxPoint x="2280" y="660" />
            </Array>
          </mxGeometry>
        </mxCell>
        <mxCell id="gdtWf7uFJ5adirnmfVYU-154" value="N23_NUCLEI_HTTP_VULNERABILITIES" style="rounded=0;whiteSpace=wrap;html=1;fillColor=#7EA6E0;fontColor=#FFFFFF;" parent="1" vertex="1">
          <mxGeometry x="2320" y="690" width="230" height="20" as="geometry" />
        </mxCell>
        <mxCell id="gdtWf7uFJ5adirnmfVYU-155" value="" style="endArrow=classic;html=1;rounded=0;entryX=0;entryY=0.5;entryDx=0;entryDy=0;fontColor=#FFFFFF;" parent="1" edge="1">
          <mxGeometry width="50" height="50" relative="1" as="geometry">
            <mxPoint x="2280" y="660" as="sourcePoint" />
            <mxPoint x="2320" y="700" as="targetPoint" />
            <Array as="points">
              <mxPoint x="2280" y="700" />
            </Array>
          </mxGeometry>
        </mxCell>
        <mxCell id="gdtWf7uFJ5adirnmfVYU-157" value="N24_NUCLEI_JAVASCRIPT" style="rounded=0;whiteSpace=wrap;html=1;fillColor=#7EA6E0;fontColor=#FFFFFF;" parent="1" vertex="1">
          <mxGeometry x="2320" y="730" width="170" height="20" as="geometry" />
        </mxCell>
        <mxCell id="gdtWf7uFJ5adirnmfVYU-158" value="" style="endArrow=classic;html=1;rounded=0;entryX=0;entryY=0.5;entryDx=0;entryDy=0;fontColor=#FFFFFF;" parent="1" edge="1">
          <mxGeometry width="50" height="50" relative="1" as="geometry">
            <mxPoint x="2280" y="700" as="sourcePoint" />
            <mxPoint x="2320" y="740" as="targetPoint" />
            <Array as="points">
              <mxPoint x="2280" y="740" />
            </Array>
          </mxGeometry>
        </mxCell>
        <mxCell id="gdtWf7uFJ5adirnmfVYU-159" value="N25_NUCLEI_SSL" style="rounded=0;whiteSpace=wrap;html=1;fillColor=#7EA6E0;fontColor=#FFFFFF;" parent="1" vertex="1">
          <mxGeometry x="2320" y="770" width="120" height="20" as="geometry" />
        </mxCell>
        <mxCell id="gdtWf7uFJ5adirnmfVYU-160" value="" style="endArrow=classic;html=1;rounded=0;entryX=0;entryY=0.5;entryDx=0;entryDy=0;fontColor=#FFFFFF;" parent="1" edge="1">
          <mxGeometry width="50" height="50" relative="1" as="geometry">
            <mxPoint x="2280" y="740" as="sourcePoint" />
            <mxPoint x="2320" y="780" as="targetPoint" />
            <Array as="points">
              <mxPoint x="2280" y="780" />
            </Array>
          </mxGeometry>
        </mxCell>
        <mxCell id="gdtWf7uFJ5adirnmfVYU-161" value="N26_NUCLEI_DAST" style="rounded=0;whiteSpace=wrap;html=1;fillColor=#7EA6E0;fontColor=#FFFFFF;" parent="1" vertex="1">
          <mxGeometry x="2320" y="810" width="120" height="20" as="geometry" />
        </mxCell>
        <mxCell id="gdtWf7uFJ5adirnmfVYU-162" value="" style="endArrow=classic;html=1;rounded=0;entryX=0;entryY=0.5;entryDx=0;entryDy=0;fontColor=#FFFFFF;" parent="1" edge="1">
          <mxGeometry width="50" height="50" relative="1" as="geometry">
            <mxPoint x="2280" y="780" as="sourcePoint" />
            <mxPoint x="2320" y="820" as="targetPoint" />
            <Array as="points">
              <mxPoint x="2280" y="820" />
            </Array>
          </mxGeometry>
        </mxCell>
        <mxCell id="gdtWf7uFJ5adirnmfVYU-163" value="N27_NUCLEI_HEADLESS" style="rounded=0;whiteSpace=wrap;html=1;fillColor=#7EA6E0;fontColor=#FFFFFF;" parent="1" vertex="1">
          <mxGeometry x="2320" y="850" width="150" height="20" as="geometry" />
        </mxCell>
        <mxCell id="gdtWf7uFJ5adirnmfVYU-164" value="" style="endArrow=classic;html=1;rounded=0;entryX=0;entryY=0.5;entryDx=0;entryDy=0;fontColor=#FFFFFF;" parent="1" edge="1">
          <mxGeometry width="50" height="50" relative="1" as="geometry">
            <mxPoint x="2280" y="820" as="sourcePoint" />
            <mxPoint x="2320" y="860" as="targetPoint" />
            <Array as="points">
              <mxPoint x="2280" y="860" />
            </Array>
          </mxGeometry>
        </mxCell>
        <mxCell id="gdtWf7uFJ5adirnmfVYU-165" value="" style="endArrow=classic;html=1;rounded=0;entryX=0;entryY=0.5;entryDx=0;entryDy=0;fontColor=#FFFFFF;" parent="1" edge="1">
          <mxGeometry width="50" height="50" relative="1" as="geometry">
            <mxPoint x="440" y="469" as="sourcePoint" />
            <mxPoint x="560" y="469" as="targetPoint" />
          </mxGeometry>
        </mxCell>
        <mxCell id="gdtWf7uFJ5adirnmfVYU-167" value="N28_NUCLEI_DNS" style="rounded=0;whiteSpace=wrap;html=1;fillColor=#7EA6E0;fontColor=#FFFFFF;" parent="1" vertex="1">
          <mxGeometry x="2320" y="890" width="120" height="20" as="geometry" />
        </mxCell>
        <mxCell id="gdtWf7uFJ5adirnmfVYU-168" value="" style="endArrow=classic;html=1;rounded=0;entryX=0;entryY=0.5;entryDx=0;entryDy=0;fontColor=#FFFFFF;" parent="1" edge="1">
          <mxGeometry width="50" height="50" relative="1" as="geometry">
            <mxPoint x="2280" y="860" as="sourcePoint" />
            <mxPoint x="2320" y="900" as="targetPoint" />
            <Array as="points">
              <mxPoint x="2280" y="900" />
            </Array>
          </mxGeometry>
        </mxCell>
        <mxCell id="gdtWf7uFJ5adirnmfVYU-169" value="V04_REQUEST_SMUGGLING_SMUGGLEFUZZ" style="rounded=0;whiteSpace=wrap;html=1;fillColor=#FF8000;fontColor=#FFFFFF;fontSize=10;" parent="1" vertex="1">
          <mxGeometry x="1240" y="550" width="230" height="20" as="geometry" />
        </mxCell>
        <mxCell id="gdtWf7uFJ5adirnmfVYU-173" value="V05_API_GOCTOPUS" style="rounded=0;whiteSpace=wrap;html=1;fillColor=#FF8000;fontColor=#FFFFFF;" parent="1" vertex="1">
          <mxGeometry x="620" y="580" width="140" height="20" as="geometry" />
        </mxCell>
        <mxCell id="gdtWf7uFJ5adirnmfVYU-174" value="" style="endArrow=classic;html=1;rounded=0;entryX=0;entryY=0.5;entryDx=0;entryDy=0;fontColor=#FFFFFF;" parent="1" edge="1">
          <mxGeometry width="50" height="50" relative="1" as="geometry">
            <mxPoint x="100" y="340" as="sourcePoint" />
            <mxPoint x="140" y="380" as="targetPoint" />
            <Array as="points">
              <mxPoint x="100" y="380" />
            </Array>
          </mxGeometry>
        </mxCell>
        <mxCell id="gdtWf7uFJ5adirnmfVYU-178" value="CLUSTER4" style="rounded=0;whiteSpace=wrap;html=1;fillColor=#666666;fontColor=#FFFFFF;" parent="1" vertex="1">
          <mxGeometry x="2140" y="360" width="120" height="20" as="geometry" />
        </mxCell>
        <mxCell id="gdtWf7uFJ5adirnmfVYU-180" value="" style="endArrow=classic;html=1;rounded=0;entryX=0;entryY=0.5;entryDx=0;entryDy=0;fontColor=#FFFFFF;" parent="1" target="gdtWf7uFJ5adirnmfVYU-50" edge="1">
          <mxGeometry width="50" height="50" relative="1" as="geometry">
            <mxPoint x="960" y="560" as="sourcePoint" />
            <mxPoint x="1000" y="640" as="targetPoint" />
            <Array as="points">
              <mxPoint x="960" y="600" />
            </Array>
          </mxGeometry>
        </mxCell>
        <mxCell id="gdtWf7uFJ5adirnmfVYU-181" value="V13_TAKEOVER_SUBZY" style="rounded=0;whiteSpace=wrap;html=1;fillColor=#FF8000;fontColor=#FFFFFF;" parent="1" vertex="1">
          <mxGeometry x="1900" y="690" width="150" height="20" as="geometry" />
        </mxCell>
        <mxCell id="gdtWf7uFJ5adirnmfVYU-182" value="" style="endArrow=classic;html=1;rounded=0;entryX=0;entryY=0.5;entryDx=0;entryDy=0;fontColor=#FFFFFF;" parent="1" edge="1">
          <mxGeometry width="50" height="50" relative="1" as="geometry">
            <mxPoint x="1860" y="660" as="sourcePoint" />
            <mxPoint x="1900" y="700" as="targetPoint" />
            <Array as="points">
              <mxPoint x="1860" y="700" />
            </Array>
          </mxGeometry>
        </mxCell>
        <mxCell id="gdtWf7uFJ5adirnmfVYU-183" value="V13_TAKEOVER_MX_SPF" style="rounded=0;whiteSpace=wrap;html=1;fillColor=#FF8000;fontColor=#FFFFFF;" parent="1" vertex="1">
          <mxGeometry x="1900" y="730" width="160" height="20" as="geometry" />
        </mxCell>
        <mxCell id="gdtWf7uFJ5adirnmfVYU-184" value="" style="endArrow=classic;html=1;rounded=0;entryX=0;entryY=0.5;entryDx=0;entryDy=0;fontColor=#FFFFFF;" parent="1" edge="1">
          <mxGeometry width="50" height="50" relative="1" as="geometry">
            <mxPoint x="1860" y="700" as="sourcePoint" />
            <mxPoint x="1900" y="740" as="targetPoint" />
            <Array as="points">
              <mxPoint x="1860" y="740" />
            </Array>
          </mxGeometry>
        </mxCell>
        <mxCell id="gdtWf7uFJ5adirnmfVYU-185" value="V16_403_BYPASS_403JUMP" style="rounded=0;whiteSpace=wrap;html=1;fillColor=#FF8000;fontColor=#FFFFFF;" parent="1" vertex="1">
          <mxGeometry x="1900" y="850" width="170" height="20" as="geometry" />
        </mxCell>
        <mxCell id="gdtWf7uFJ5adirnmfVYU-187" value="V17_FAVICON_FAVIRECON" style="rounded=0;whiteSpace=wrap;html=1;fillColor=#FF8000;fontColor=#FFFFFF;" parent="1" vertex="1">
          <mxGeometry x="1900" y="930" width="160" height="20" as="geometry" />
        </mxCell>
        <mxCell id="gdtWf7uFJ5adirnmfVYU-188" value="" style="endArrow=classic;html=1;rounded=0;entryX=0;entryY=0.5;entryDx=0;entryDy=0;fontColor=#FFFFFF;" parent="1" edge="1">
          <mxGeometry width="50" height="50" relative="1" as="geometry">
            <mxPoint x="1860" y="900" as="sourcePoint" />
            <mxPoint x="1900" y="940" as="targetPoint" />
            <Array as="points">
              <mxPoint x="1860" y="940" />
            </Array>
          </mxGeometry>
        </mxCell>
        <mxCell id="gdtWf7uFJ5adirnmfVYU-189" value="" style="endArrow=classic;html=1;rounded=0;entryX=0;entryY=0.5;entryDx=0;entryDy=0;fontColor=#FFFFFF;exitX=1;exitY=0.5;exitDx=0;exitDy=0;" parent="1" edge="1">
          <mxGeometry width="50" height="50" relative="1" as="geometry">
            <mxPoint x="940" y="380" as="sourcePoint" />
            <mxPoint x="1000" y="440" as="targetPoint" />
            <Array as="points">
              <mxPoint x="960" y="380" />
              <mxPoint x="960" y="440" />
            </Array>
          </mxGeometry>
        </mxCell>
        <mxCell id="gdtWf7uFJ5adirnmfVYU-190" value="" style="endArrow=classic;html=1;rounded=0;fontColor=#FFFFFF;exitX=1;exitY=0.5;exitDx=0;exitDy=0;" parent="1" source="gdtWf7uFJ5adirnmfVYU-15" edge="1">
          <mxGeometry width="50" height="50" relative="1" as="geometry">
            <mxPoint x="570" y="130" as="sourcePoint" />
            <mxPoint x="1060" y="160" as="targetPoint" />
            <Array as="points">
              <mxPoint x="1060" y="130" />
            </Array>
          </mxGeometry>
        </mxCell>
        <mxCell id="-3z25J2AYgiJaRypGIN6-1" value="" style="endArrow=classic;html=1;rounded=0;entryX=0;entryY=0.5;entryDx=0;entryDy=0;fontColor=#FFFFFF;" parent="1" edge="1">
          <mxGeometry width="50" height="50" relative="1" as="geometry">
            <mxPoint x="520" y="470" as="sourcePoint" />
            <mxPoint x="560" y="510" as="targetPoint" />
            <Array as="points">
              <mxPoint x="520" y="510" />
            </Array>
          </mxGeometry>
        </mxCell>
        <mxCell id="-3z25J2AYgiJaRypGIN6-2" value="" style="endArrow=classic;html=1;rounded=0;entryX=0;entryY=0.5;entryDx=0;entryDy=0;fontColor=#FFFFFF;" parent="1" edge="1">
          <mxGeometry width="50" height="50" relative="1" as="geometry">
            <mxPoint x="520" y="510" as="sourcePoint" />
            <mxPoint x="560" y="550" as="targetPoint" />
            <Array as="points">
              <mxPoint x="520" y="550" />
            </Array>
          </mxGeometry>
        </mxCell>
        <mxCell id="-3z25J2AYgiJaRypGIN6-3" value="" style="endArrow=classic;html=1;rounded=0;entryX=0;entryY=0.5;entryDx=0;entryDy=0;fontColor=#FFFFFF;" parent="1" edge="1">
          <mxGeometry width="50" height="50" relative="1" as="geometry">
            <mxPoint x="280" y="430" as="sourcePoint" />
            <mxPoint x="320" y="470" as="targetPoint" />
            <Array as="points">
              <mxPoint x="280" y="470" />
            </Array>
          </mxGeometry>
        </mxCell>
        <mxCell id="-3z25J2AYgiJaRypGIN6-4" value="" style="endArrow=classic;html=1;rounded=0;entryX=0;entryY=0.5;entryDx=0;entryDy=0;fontColor=#FFFFFF;" parent="1" edge="1">
          <mxGeometry width="50" height="50" relative="1" as="geometry">
            <mxPoint x="580" y="560" as="sourcePoint" />
            <mxPoint x="620" y="590" as="targetPoint" />
            <Array as="points">
              <mxPoint x="580" y="590" />
            </Array>
          </mxGeometry>
        </mxCell>
        <mxCell id="-3z25J2AYgiJaRypGIN6-5" value="" style="endArrow=classic;html=1;rounded=0;entryX=0;entryY=0.5;entryDx=0;entryDy=0;fontColor=#FFFFFF;" parent="1" edge="1">
          <mxGeometry width="50" height="50" relative="1" as="geometry">
            <mxPoint x="580" y="590" as="sourcePoint" />
            <mxPoint x="620" y="630" as="targetPoint" />
            <Array as="points">
              <mxPoint x="580" y="630" />
            </Array>
          </mxGeometry>
        </mxCell>
        <mxCell id="-3z25J2AYgiJaRypGIN6-6" value="" style="endArrow=classic;html=1;rounded=0;entryX=0;entryY=0.5;entryDx=0;entryDy=0;fontColor=#FFFFFF;" parent="1" edge="1">
          <mxGeometry width="50" height="50" relative="1" as="geometry">
            <mxPoint x="1620" y="660" as="sourcePoint" />
            <mxPoint x="1660" y="780" as="targetPoint" />
            <Array as="points">
              <mxPoint x="1620" y="780" />
            </Array>
          </mxGeometry>
        </mxCell>
        <mxCell id="-3z25J2AYgiJaRypGIN6-7" value="" style="endArrow=classic;html=1;rounded=0;entryX=0;entryY=0.5;entryDx=0;entryDy=0;fontColor=#FFFFFF;" parent="1" edge="1">
          <mxGeometry width="50" height="50" relative="1" as="geometry">
            <mxPoint x="960" y="600" as="sourcePoint" />
            <mxPoint x="1000" y="680" as="targetPoint" />
            <Array as="points">
              <mxPoint x="960" y="680" />
            </Array>
          </mxGeometry>
        </mxCell>
        <mxCell id="-3z25J2AYgiJaRypGIN6-10" value="" style="endArrow=classic;html=1;rounded=0;entryX=0;entryY=0.5;entryDx=0;entryDy=0;fontColor=#FFFFFF;" parent="1" edge="1">
          <mxGeometry width="50" height="50" relative="1" as="geometry">
            <mxPoint x="1260" y="760" as="sourcePoint" />
            <mxPoint x="1300" y="800" as="targetPoint" />
            <Array as="points">
              <mxPoint x="1260" y="800" />
            </Array>
          </mxGeometry>
        </mxCell>
        <mxCell id="-3z25J2AYgiJaRypGIN6-11" value="" style="endArrow=classic;html=1;rounded=0;entryX=0;entryY=0.5;entryDx=0;entryDy=0;fontColor=#FFFFFF;" parent="1" edge="1">
          <mxGeometry width="50" height="50" relative="1" as="geometry">
            <mxPoint x="1620" y="860" as="sourcePoint" />
            <mxPoint x="1660" y="900" as="targetPoint" />
            <Array as="points">
              <mxPoint x="1620" y="900" />
            </Array>
          </mxGeometry>
        </mxCell>
        <mxCell id="EcQkCJxtu4nCPvpzbWq9-2" value="" style="endArrow=classic;html=1;rounded=0;exitX=1;exitY=0.5;exitDx=0;exitDy=0;" parent="1" source="gdtWf7uFJ5adirnmfVYU-27" edge="1">
          <mxGeometry width="50" height="50" relative="1" as="geometry">
            <mxPoint x="2130" y="420" as="sourcePoint" />
            <mxPoint x="2200" y="380" as="targetPoint" />
            <Array as="points">
              <mxPoint x="2200" y="420" />
            </Array>
          </mxGeometry>
        </mxCell>
        <mxCell id="EcQkCJxtu4nCPvpzbWq9-4" value="" style="endArrow=none;html=1;rounded=0;exitX=1;exitY=0.5;exitDx=0;exitDy=0;" parent="1" source="gdtWf7uFJ5adirnmfVYU-28" edge="1">
          <mxGeometry width="50" height="50" relative="1" as="geometry">
            <mxPoint x="2060" y="460" as="sourcePoint" />
            <mxPoint x="2200" y="420" as="targetPoint" />
            <Array as="points">
              <mxPoint x="2200" y="460" />
            </Array>
          </mxGeometry>
        </mxCell>
        <mxCell id="EcQkCJxtu4nCPvpzbWq9-5" value="" style="endArrow=none;html=1;rounded=0;exitX=1;exitY=0.5;exitDx=0;exitDy=0;" parent="1" source="gdtWf7uFJ5adirnmfVYU-31" edge="1">
          <mxGeometry width="50" height="50" relative="1" as="geometry">
            <mxPoint x="2060" y="500" as="sourcePoint" />
            <mxPoint x="2200" y="460" as="targetPoint" />
            <Array as="points">
              <mxPoint x="2200" y="500" />
            </Array>
          </mxGeometry>
        </mxCell>
        <mxCell id="EcQkCJxtu4nCPvpzbWq9-6" value="" style="endArrow=none;html=1;rounded=0;exitX=1;exitY=0.5;exitDx=0;exitDy=0;" parent="1" source="gdtWf7uFJ5adirnmfVYU-33" edge="1">
          <mxGeometry width="50" height="50" relative="1" as="geometry">
            <mxPoint x="2060" y="540" as="sourcePoint" />
            <mxPoint x="2200" y="500" as="targetPoint" />
            <Array as="points">
              <mxPoint x="2200" y="540" />
            </Array>
          </mxGeometry>
        </mxCell>
        <mxCell id="EcQkCJxtu4nCPvpzbWq9-8" value="" style="endArrow=none;html=1;rounded=0;exitX=1;exitY=0.5;exitDx=0;exitDy=0;" parent="1" source="gdtWf7uFJ5adirnmfVYU-35" edge="1">
          <mxGeometry width="50" height="50" relative="1" as="geometry">
            <mxPoint x="2080" y="580" as="sourcePoint" />
            <mxPoint x="2200" y="540" as="targetPoint" />
            <Array as="points">
              <mxPoint x="2200" y="580" />
            </Array>
          </mxGeometry>
        </mxCell>
        <mxCell id="EcQkCJxtu4nCPvpzbWq9-9" value="" style="endArrow=none;html=1;rounded=0;exitX=1;exitY=0.5;exitDx=0;exitDy=0;" parent="1" source="gdtWf7uFJ5adirnmfVYU-36" edge="1">
          <mxGeometry width="50" height="50" relative="1" as="geometry">
            <mxPoint x="2070" y="620" as="sourcePoint" />
            <mxPoint x="2200" y="580" as="targetPoint" />
            <Array as="points">
              <mxPoint x="2200" y="620" />
            </Array>
          </mxGeometry>
        </mxCell>
        <mxCell id="EcQkCJxtu4nCPvpzbWq9-10" value="" style="endArrow=none;html=1;rounded=0;exitX=1;exitY=0.5;exitDx=0;exitDy=0;" parent="1" source="gdtWf7uFJ5adirnmfVYU-37" edge="1">
          <mxGeometry width="50" height="50" relative="1" as="geometry">
            <mxPoint x="2100" y="660" as="sourcePoint" />
            <mxPoint x="2200" y="620" as="targetPoint" />
            <Array as="points">
              <mxPoint x="2200" y="660" />
            </Array>
          </mxGeometry>
        </mxCell>
        <mxCell id="EcQkCJxtu4nCPvpzbWq9-11" value="" style="endArrow=none;html=1;rounded=0;exitX=1;exitY=0.5;exitDx=0;exitDy=0;" parent="1" source="gdtWf7uFJ5adirnmfVYU-181" edge="1">
          <mxGeometry width="50" height="50" relative="1" as="geometry">
            <mxPoint x="2090" y="700" as="sourcePoint" />
            <mxPoint x="2200" y="660" as="targetPoint" />
            <Array as="points">
              <mxPoint x="2200" y="700" />
            </Array>
          </mxGeometry>
        </mxCell>
        <mxCell id="EcQkCJxtu4nCPvpzbWq9-12" value="" style="endArrow=none;html=1;rounded=0;exitX=1;exitY=0.5;exitDx=0;exitDy=0;" parent="1" source="gdtWf7uFJ5adirnmfVYU-183" edge="1">
          <mxGeometry width="50" height="50" relative="1" as="geometry">
            <mxPoint x="2100" y="740" as="sourcePoint" />
            <mxPoint x="2200" y="700" as="targetPoint" />
            <Array as="points">
              <mxPoint x="2200" y="740" />
            </Array>
          </mxGeometry>
        </mxCell>
        <mxCell id="EcQkCJxtu4nCPvpzbWq9-13" value="" style="endArrow=none;html=1;rounded=0;exitX=1;exitY=0.5;exitDx=0;exitDy=0;" parent="1" source="gdtWf7uFJ5adirnmfVYU-38" edge="1">
          <mxGeometry width="50" height="50" relative="1" as="geometry">
            <mxPoint x="2100" y="780" as="sourcePoint" />
            <mxPoint x="2200" y="740" as="targetPoint" />
            <Array as="points">
              <mxPoint x="2200" y="780" />
            </Array>
          </mxGeometry>
        </mxCell>
        <mxCell id="EcQkCJxtu4nCPvpzbWq9-14" value="" style="endArrow=none;html=1;rounded=0;exitX=1;exitY=0.5;exitDx=0;exitDy=0;" parent="1" source="gdtWf7uFJ5adirnmfVYU-39" edge="1">
          <mxGeometry width="50" height="50" relative="1" as="geometry">
            <mxPoint x="2130" y="820" as="sourcePoint" />
            <mxPoint x="2200" y="780" as="targetPoint" />
            <Array as="points">
              <mxPoint x="2200" y="820" />
            </Array>
          </mxGeometry>
        </mxCell>
        <mxCell id="EcQkCJxtu4nCPvpzbWq9-15" value="" style="endArrow=none;html=1;rounded=0;exitX=1;exitY=0.5;exitDx=0;exitDy=0;" parent="1" source="gdtWf7uFJ5adirnmfVYU-185" edge="1">
          <mxGeometry width="50" height="50" relative="1" as="geometry">
            <mxPoint x="2110" y="860" as="sourcePoint" />
            <mxPoint x="2200" y="820" as="targetPoint" />
            <Array as="points">
              <mxPoint x="2200" y="860" />
            </Array>
          </mxGeometry>
        </mxCell>
        <mxCell id="EcQkCJxtu4nCPvpzbWq9-16" value="" style="endArrow=none;html=1;rounded=0;exitX=1;exitY=0.5;exitDx=0;exitDy=0;" parent="1" source="gdtWf7uFJ5adirnmfVYU-78" edge="1">
          <mxGeometry width="50" height="50" relative="1" as="geometry">
            <mxPoint x="2100" y="900" as="sourcePoint" />
            <mxPoint x="2200" y="860" as="targetPoint" />
            <Array as="points">
              <mxPoint x="2200" y="900" />
            </Array>
          </mxGeometry>
        </mxCell>
        <mxCell id="EcQkCJxtu4nCPvpzbWq9-17" value="" style="endArrow=none;html=1;rounded=0;exitX=1;exitY=0.5;exitDx=0;exitDy=0;" parent="1" source="gdtWf7uFJ5adirnmfVYU-187" edge="1">
          <mxGeometry width="50" height="50" relative="1" as="geometry">
            <mxPoint x="2100" y="940" as="sourcePoint" />
            <mxPoint x="2200" y="900" as="targetPoint" />
            <Array as="points">
              <mxPoint x="2200" y="940" />
            </Array>
          </mxGeometry>
        </mxCell>
        <mxCell id="EcQkCJxtu4nCPvpzbWq9-18" value="" style="endArrow=classic;html=1;rounded=0;exitX=1;exitY=0.5;exitDx=0;exitDy=0;" parent="1" source="gdtWf7uFJ5adirnmfVYU-141" edge="1">
          <mxGeometry width="50" height="50" relative="1" as="geometry">
            <mxPoint x="2520" y="420" as="sourcePoint" />
            <mxPoint x="2600" y="380" as="targetPoint" />
            <Array as="points">
              <mxPoint x="2600" y="420" />
            </Array>
          </mxGeometry>
        </mxCell>
        <mxCell id="EcQkCJxtu4nCPvpzbWq9-20" value="" style="endArrow=none;html=1;rounded=0;" parent="1" edge="1">
          <mxGeometry width="50" height="50" relative="1" as="geometry">
            <mxPoint x="2480" y="460" as="sourcePoint" />
            <mxPoint x="2600" y="420" as="targetPoint" />
            <Array as="points">
              <mxPoint x="2600" y="460" />
            </Array>
          </mxGeometry>
        </mxCell>
        <mxCell id="EcQkCJxtu4nCPvpzbWq9-21" value="" style="endArrow=none;html=1;rounded=0;" parent="1" edge="1">
          <mxGeometry width="50" height="50" relative="1" as="geometry">
            <mxPoint x="2550" y="500" as="sourcePoint" />
            <mxPoint x="2600" y="460" as="targetPoint" />
            <Array as="points">
              <mxPoint x="2600" y="500" />
            </Array>
          </mxGeometry>
        </mxCell>
        <mxCell id="EcQkCJxtu4nCPvpzbWq9-22" value="" style="endArrow=none;html=1;rounded=0;" parent="1" edge="1">
          <mxGeometry width="50" height="50" relative="1" as="geometry">
            <mxPoint x="2560" y="540" as="sourcePoint" />
            <mxPoint x="2600" y="500" as="targetPoint" />
            <Array as="points">
              <mxPoint x="2600" y="540" />
            </Array>
          </mxGeometry>
        </mxCell>
        <mxCell id="EcQkCJxtu4nCPvpzbWq9-23" value="" style="endArrow=none;html=1;rounded=0;exitX=1;exitY=0.5;exitDx=0;exitDy=0;" parent="1" source="gdtWf7uFJ5adirnmfVYU-148" edge="1">
          <mxGeometry width="50" height="50" relative="1" as="geometry">
            <mxPoint x="2550" y="580" as="sourcePoint" />
            <mxPoint x="2600" y="540" as="targetPoint" />
            <Array as="points">
              <mxPoint x="2600" y="580" />
            </Array>
          </mxGeometry>
        </mxCell>
        <mxCell id="EcQkCJxtu4nCPvpzbWq9-24" value="" style="endArrow=none;html=1;rounded=0;" parent="1" edge="1">
          <mxGeometry width="50" height="50" relative="1" as="geometry">
            <mxPoint x="2570" y="620" as="sourcePoint" />
            <mxPoint x="2600" y="580" as="targetPoint" />
            <Array as="points">
              <mxPoint x="2600" y="620" />
            </Array>
          </mxGeometry>
        </mxCell>
        <mxCell id="EcQkCJxtu4nCPvpzbWq9-25" value="" style="endArrow=none;html=1;rounded=0;exitX=1;exitY=0.5;exitDx=0;exitDy=0;" parent="1" source="gdtWf7uFJ5adirnmfVYU-152" edge="1">
          <mxGeometry width="50" height="50" relative="1" as="geometry">
            <mxPoint x="2560" y="660" as="sourcePoint" />
            <mxPoint x="2600" y="620" as="targetPoint" />
            <Array as="points">
              <mxPoint x="2600" y="660" />
            </Array>
          </mxGeometry>
        </mxCell>
        <mxCell id="EcQkCJxtu4nCPvpzbWq9-26" value="" style="endArrow=none;html=1;rounded=0;exitX=1;exitY=0.5;exitDx=0;exitDy=0;" parent="1" edge="1">
          <mxGeometry width="50" height="50" relative="1" as="geometry">
            <mxPoint x="2550" y="700" as="sourcePoint" />
            <mxPoint x="2600" y="660" as="targetPoint" />
            <Array as="points">
              <mxPoint x="2600" y="700" />
            </Array>
          </mxGeometry>
        </mxCell>
        <mxCell id="EcQkCJxtu4nCPvpzbWq9-27" value="" style="endArrow=none;html=1;rounded=0;" parent="1" edge="1">
          <mxGeometry width="50" height="50" relative="1" as="geometry">
            <mxPoint x="2490" y="740" as="sourcePoint" />
            <mxPoint x="2600" y="700" as="targetPoint" />
            <Array as="points">
              <mxPoint x="2600" y="740" />
            </Array>
          </mxGeometry>
        </mxCell>
        <mxCell id="EcQkCJxtu4nCPvpzbWq9-28" value="" style="endArrow=none;html=1;rounded=0;exitX=1;exitY=0.5;exitDx=0;exitDy=0;" parent="1" source="gdtWf7uFJ5adirnmfVYU-159" edge="1">
          <mxGeometry width="50" height="50" relative="1" as="geometry">
            <mxPoint x="2490" y="780" as="sourcePoint" />
            <mxPoint x="2600" y="740" as="targetPoint" />
            <Array as="points">
              <mxPoint x="2600" y="780" />
            </Array>
          </mxGeometry>
        </mxCell>
        <mxCell id="EcQkCJxtu4nCPvpzbWq9-29" value="" style="endArrow=none;html=1;rounded=0;exitX=1;exitY=0.5;exitDx=0;exitDy=0;" parent="1" edge="1">
          <mxGeometry width="50" height="50" relative="1" as="geometry">
            <mxPoint x="2440" y="820" as="sourcePoint" />
            <mxPoint x="2600" y="780" as="targetPoint" />
            <Array as="points">
              <mxPoint x="2600" y="820" />
            </Array>
          </mxGeometry>
        </mxCell>
        <mxCell id="EcQkCJxtu4nCPvpzbWq9-30" value="" style="endArrow=none;html=1;rounded=0;exitX=1;exitY=0.5;exitDx=0;exitDy=0;" parent="1" source="gdtWf7uFJ5adirnmfVYU-163" edge="1">
          <mxGeometry width="50" height="50" relative="1" as="geometry">
            <mxPoint x="2440" y="860" as="sourcePoint" />
            <mxPoint x="2600" y="820" as="targetPoint" />
            <Array as="points">
              <mxPoint x="2600" y="860" />
            </Array>
          </mxGeometry>
        </mxCell>
        <mxCell id="EcQkCJxtu4nCPvpzbWq9-31" value="" style="endArrow=none;html=1;rounded=0;exitX=1;exitY=0.5;exitDx=0;exitDy=0;" parent="1" edge="1">
          <mxGeometry width="50" height="50" relative="1" as="geometry">
            <mxPoint x="2440" y="900" as="sourcePoint" />
            <mxPoint x="2600" y="860" as="targetPoint" />
            <Array as="points">
              <mxPoint x="2600" y="900" />
            </Array>
          </mxGeometry>
        </mxCell>
        <mxCell id="EcQkCJxtu4nCPvpzbWq9-32" value="" style="endArrow=classic;html=1;rounded=0;entryX=0;entryY=0.5;entryDx=0;entryDy=0;fontColor=#FFFFFF;" parent="1" edge="1">
          <mxGeometry width="50" height="50" relative="1" as="geometry">
            <mxPoint x="1260" y="730" as="sourcePoint" />
            <mxPoint x="1300" y="760" as="targetPoint" />
            <Array as="points">
              <mxPoint x="1260" y="760" />
            </Array>
          </mxGeometry>
        </mxCell>
        <mxCell id="EcQkCJxtu4nCPvpzbWq9-33" value="" style="endArrow=classic;html=1;rounded=0;exitX=1;exitY=0.5;exitDx=0;exitDy=0;" parent="1" source="gdtWf7uFJ5adirnmfVYU-76" edge="1">
          <mxGeometry width="50" height="50" relative="1" as="geometry">
            <mxPoint x="760" y="430" as="sourcePoint" />
            <mxPoint x="880" y="390" as="targetPoint" />
            <Array as="points">
              <mxPoint x="880" y="430" />
            </Array>
          </mxGeometry>
        </mxCell>
        <mxCell id="EcQkCJxtu4nCPvpzbWq9-34" value="" style="endArrow=none;html=1;rounded=0;exitX=1;exitY=0.5;exitDx=0;exitDy=0;" parent="1" source="gdtWf7uFJ5adirnmfVYU-41" edge="1">
          <mxGeometry width="50" height="50" relative="1" as="geometry">
            <mxPoint x="760" y="470" as="sourcePoint" />
            <mxPoint x="880" y="430" as="targetPoint" />
            <Array as="points">
              <mxPoint x="880" y="470" />
            </Array>
          </mxGeometry>
        </mxCell>
        <mxCell id="EcQkCJxtu4nCPvpzbWq9-35" value="" style="endArrow=none;html=1;rounded=0;" parent="1" edge="1">
          <mxGeometry width="50" height="50" relative="1" as="geometry">
            <mxPoint x="700" y="510" as="sourcePoint" />
            <mxPoint x="880" y="470" as="targetPoint" />
            <Array as="points">
              <mxPoint x="880" y="510" />
            </Array>
          </mxGeometry>
        </mxCell>
        <mxCell id="EcQkCJxtu4nCPvpzbWq9-37" value="" style="endArrow=none;html=1;rounded=0;" parent="1" edge="1">
          <mxGeometry width="50" height="50" relative="1" as="geometry">
            <mxPoint x="760" y="590" as="sourcePoint" />
            <mxPoint x="880" y="510" as="targetPoint" />
            <Array as="points">
              <mxPoint x="880" y="590" />
            </Array>
          </mxGeometry>
        </mxCell>
        <mxCell id="EcQkCJxtu4nCPvpzbWq9-38" value="" style="endArrow=none;html=1;rounded=0;" parent="1" edge="1">
          <mxGeometry width="50" height="50" relative="1" as="geometry">
            <mxPoint x="760" y="630" as="sourcePoint" />
            <mxPoint x="880" y="590" as="targetPoint" />
            <Array as="points">
              <mxPoint x="880" y="630" />
            </Array>
          </mxGeometry>
        </mxCell>
        <mxCell id="EcQkCJxtu4nCPvpzbWq9-39" value="" style="endArrow=none;html=1;rounded=0;" parent="1" edge="1">
          <mxGeometry width="50" height="50" relative="1" as="geometry">
            <mxPoint x="760" y="670" as="sourcePoint" />
            <mxPoint x="880" y="630" as="targetPoint" />
            <Array as="points">
              <mxPoint x="880" y="670" />
            </Array>
          </mxGeometry>
        </mxCell>
        <mxCell id="EcQkCJxtu4nCPvpzbWq9-40" value="" style="endArrow=none;html=1;rounded=0;exitX=1;exitY=0.5;exitDx=0;exitDy=0;" parent="1" source="gdtWf7uFJ5adirnmfVYU-83" edge="1">
          <mxGeometry width="50" height="50" relative="1" as="geometry">
            <mxPoint x="760" y="710" as="sourcePoint" />
            <mxPoint x="880" y="670" as="targetPoint" />
            <Array as="points">
              <mxPoint x="880" y="710" />
            </Array>
          </mxGeometry>
        </mxCell>
        <mxCell id="EcQkCJxtu4nCPvpzbWq9-42" value="" style="endArrow=classic;html=1;rounded=0;entryX=0;entryY=0.5;entryDx=0;entryDy=0;fontColor=#FFFFFF;" parent="1" edge="1">
          <mxGeometry width="50" height="50" relative="1" as="geometry">
            <mxPoint x="400" y="170" as="sourcePoint" />
            <mxPoint x="440" y="210" as="targetPoint" />
            <Array as="points">
              <mxPoint x="400" y="210" />
            </Array>
          </mxGeometry>
        </mxCell>
        <mxCell id="EcQkCJxtu4nCPvpzbWq9-43" value="END" style="rounded=0;whiteSpace=wrap;html=1;fillColor=#666666;fontColor=#FFFFFF;" parent="1" vertex="1">
          <mxGeometry x="3000" y="360" width="120" height="20" as="geometry" />
        </mxCell>
        <mxCell id="EcQkCJxtu4nCPvpzbWq9-44" value="" style="endArrow=classic;html=1;rounded=0;" parent="1" edge="1">
          <mxGeometry width="50" height="50" relative="1" as="geometry">
            <mxPoint x="1460" y="440" as="sourcePoint" />
            <mxPoint x="1520" y="390" as="targetPoint" />
            <Array as="points">
              <mxPoint x="1520" y="440" />
            </Array>
          </mxGeometry>
        </mxCell>
        <mxCell id="EcQkCJxtu4nCPvpzbWq9-45" value="" style="endArrow=none;html=1;rounded=0;exitX=1;exitY=0.5;exitDx=0;exitDy=0;" parent="1" source="gdtWf7uFJ5adirnmfVYU-86" edge="1">
          <mxGeometry width="50" height="50" relative="1" as="geometry">
            <mxPoint x="1400" y="480" as="sourcePoint" />
            <mxPoint x="1520" y="440" as="targetPoint" />
            <Array as="points">
              <mxPoint x="1520" y="480" />
            </Array>
          </mxGeometry>
        </mxCell>
        <mxCell id="EcQkCJxtu4nCPvpzbWq9-46" value="" style="endArrow=none;html=1;rounded=0;" parent="1" edge="1">
          <mxGeometry width="50" height="50" relative="1" as="geometry">
            <mxPoint x="1390" y="520" as="sourcePoint" />
            <mxPoint x="1520" y="480" as="targetPoint" />
            <Array as="points">
              <mxPoint x="1520" y="520" />
            </Array>
          </mxGeometry>
        </mxCell>
        <mxCell id="EcQkCJxtu4nCPvpzbWq9-47" value="" style="endArrow=none;html=1;rounded=0;" parent="1" edge="1">
          <mxGeometry width="50" height="50" relative="1" as="geometry">
            <mxPoint x="1470" y="560" as="sourcePoint" />
            <mxPoint x="1520" y="520" as="targetPoint" />
            <Array as="points">
              <mxPoint x="1520" y="560" />
            </Array>
          </mxGeometry>
        </mxCell>
        <mxCell id="EcQkCJxtu4nCPvpzbWq9-48" value="" style="endArrow=none;html=1;rounded=0;exitX=1;exitY=0.5;exitDx=0;exitDy=0;" parent="1" edge="1">
          <mxGeometry width="50" height="50" relative="1" as="geometry">
            <mxPoint x="1360" y="600" as="sourcePoint" />
            <mxPoint x="1520" y="560" as="targetPoint" />
            <Array as="points">
              <mxPoint x="1520" y="600" />
            </Array>
          </mxGeometry>
        </mxCell>
        <mxCell id="EcQkCJxtu4nCPvpzbWq9-49" value="" style="endArrow=none;html=1;rounded=0;exitX=1;exitY=0.5;exitDx=0;exitDy=0;" parent="1" edge="1">
          <mxGeometry width="50" height="50" relative="1" as="geometry">
            <mxPoint x="1360" y="640" as="sourcePoint" />
            <mxPoint x="1520" y="600" as="targetPoint" />
            <Array as="points">
              <mxPoint x="1520" y="640" />
            </Array>
          </mxGeometry>
        </mxCell>
        <mxCell id="EcQkCJxtu4nCPvpzbWq9-50" value="" style="endArrow=none;html=1;rounded=0;exitX=1;exitY=0.5;exitDx=0;exitDy=0;" parent="1" edge="1">
          <mxGeometry width="50" height="50" relative="1" as="geometry">
            <mxPoint x="1360" y="680" as="sourcePoint" />
            <mxPoint x="1520" y="640" as="targetPoint" />
            <Array as="points">
              <mxPoint x="1520" y="680" />
            </Array>
          </mxGeometry>
        </mxCell>
        <mxCell id="EcQkCJxtu4nCPvpzbWq9-52" value="" style="endArrow=none;html=1;rounded=0;exitX=1;exitY=0.5;exitDx=0;exitDy=0;" parent="1" source="gdtWf7uFJ5adirnmfVYU-42" edge="1">
          <mxGeometry width="50" height="50" relative="1" as="geometry">
            <mxPoint x="1470" y="760" as="sourcePoint" />
            <mxPoint x="1520" y="680" as="targetPoint" />
            <Array as="points">
              <mxPoint x="1520" y="760" />
            </Array>
          </mxGeometry>
        </mxCell>
        <mxCell id="EcQkCJxtu4nCPvpzbWq9-53" value="" style="endArrow=none;html=1;rounded=0;exitX=1;exitY=0.5;exitDx=0;exitDy=0;" parent="1" edge="1">
          <mxGeometry width="50" height="50" relative="1" as="geometry">
            <mxPoint x="1420" y="800" as="sourcePoint" />
            <mxPoint x="1520" y="760" as="targetPoint" />
            <Array as="points">
              <mxPoint x="1520" y="800" />
            </Array>
          </mxGeometry>
        </mxCell>
        <mxCell id="EcQkCJxtu4nCPvpzbWq9-54" value="" style="endArrow=none;html=1;rounded=0;exitX=1;exitY=0.5;exitDx=0;exitDy=0;" parent="1" edge="1" source="gdtWf7uFJ5adirnmfVYU-29">
          <mxGeometry width="50" height="50" relative="1" as="geometry">
            <mxPoint x="780" y="830" as="sourcePoint" />
            <mxPoint x="880" y="790" as="targetPoint" />
            <Array as="points">
              <mxPoint x="880" y="830" />
            </Array>
          </mxGeometry>
        </mxCell>
        <mxCell id="EcQkCJxtu4nCPvpzbWq9-55" value="" style="endArrow=none;html=1;rounded=0;exitX=1;exitY=0.5;exitDx=0;exitDy=0;" parent="1" source="gdtWf7uFJ5adirnmfVYU-80" edge="1">
          <mxGeometry width="50" height="50" relative="1" as="geometry">
            <mxPoint x="740" y="870" as="sourcePoint" />
            <mxPoint x="880" y="830" as="targetPoint" />
            <Array as="points">
              <mxPoint x="880" y="870" />
            </Array>
          </mxGeometry>
        </mxCell>
        <mxCell id="EcQkCJxtu4nCPvpzbWq9-56" value="" style="endArrow=classic;html=1;rounded=0;entryX=0;entryY=0.5;entryDx=0;entryDy=0;fontColor=#FFFFFF;" parent="1" edge="1">
          <mxGeometry width="50" height="50" relative="1" as="geometry">
            <mxPoint x="240" y="1170" as="sourcePoint" />
            <mxPoint x="280" y="1210" as="targetPoint" />
            <Array as="points">
              <mxPoint x="240" y="1210" />
            </Array>
          </mxGeometry>
        </mxCell>
        <mxCell id="EcQkCJxtu4nCPvpzbWq9-60" value="END_A" style="rounded=0;whiteSpace=wrap;html=1;fillColor=#666666;fontColor=#FFFFFF;" parent="1" vertex="1">
          <mxGeometry x="840" y="200" width="120" height="20" as="geometry" />
        </mxCell>
        <mxCell id="EcQkCJxtu4nCPvpzbWq9-61" value="" style="endArrow=classic;html=1;rounded=0;exitX=1;exitY=0.5;exitDx=0;exitDy=0;fontColor=#FFFFFF;entryX=0;entryY=0.5;entryDx=0;entryDy=0;" parent="1" target="EcQkCJxtu4nCPvpzbWq9-60" edge="1">
          <mxGeometry width="50" height="50" relative="1" as="geometry">
            <mxPoint x="560" y="209.66" as="sourcePoint" />
            <mxPoint x="680" y="210.16" as="targetPoint" />
          </mxGeometry>
        </mxCell>
        <mxCell id="EcQkCJxtu4nCPvpzbWq9-65" value="" style="endArrow=classic;html=1;rounded=0;fontColor=#FFFFFF;entryX=0.5;entryY=1;entryDx=0;entryDy=0;exitX=1;exitY=0.5;exitDx=0;exitDy=0;" parent="1" source="gdtWf7uFJ5adirnmfVYU-3" edge="1">
          <mxGeometry width="50" height="50" relative="1" as="geometry">
            <mxPoint x="380" y="280" as="sourcePoint" />
            <mxPoint x="920" y="220" as="targetPoint" />
            <Array as="points">
              <mxPoint x="380" y="170" />
              <mxPoint x="380" y="280" />
              <mxPoint x="920" y="280" />
            </Array>
          </mxGeometry>
        </mxCell>
        <mxCell id="2srjz_qQRc1WShI5TXB5-1" value="" style="endArrow=none;html=1;rounded=0;exitX=1;exitY=0.5;exitDx=0;exitDy=0;" parent="1" source="gdtWf7uFJ5adirnmfVYU-22" edge="1">
          <mxGeometry width="50" height="50" relative="1" as="geometry">
            <mxPoint x="330" y="260" as="sourcePoint" />
            <mxPoint x="380" y="210" as="targetPoint" />
          </mxGeometry>
        </mxCell>
        <mxCell id="2srjz_qQRc1WShI5TXB5-4" value="V23_INFORMATION_DISCLOSURE" style="rounded=0;whiteSpace=wrap;html=1;fillColor=#000000;fontColor=#FFFFFF;fontSize=10;" parent="1" vertex="1">
          <mxGeometry x="320" y="740" width="170" height="20" as="geometry" />
        </mxCell>
        <mxCell id="2srjz_qQRc1WShI5TXB5-5" value="" style="endArrow=classic;html=1;rounded=0;entryX=0;entryY=0.5;entryDx=0;entryDy=0;fontColor=#FFFFFF;" parent="1" edge="1">
          <mxGeometry width="50" height="50" relative="1" as="geometry">
            <mxPoint x="280" y="670" as="sourcePoint" />
            <mxPoint x="320" y="750" as="targetPoint" />
            <Array as="points">
              <mxPoint x="280" y="750" />
            </Array>
          </mxGeometry>
        </mxCell>
        <mxCell id="2srjz_qQRc1WShI5TXB5-6" value="A03_NIKTO_INFORMATION_DISCLOSURE" style="rounded=0;whiteSpace=wrap;html=1;fillColor=#99FF33;fontColor=#FFFFFF;fontSize=10;" parent="1" vertex="1">
          <mxGeometry x="2720" y="490" width="210" height="20" as="geometry" />
        </mxCell>
        <mxCell id="2srjz_qQRc1WShI5TXB5-7" value="" style="endArrow=classic;html=1;rounded=0;entryX=0;entryY=0.5;entryDx=0;entryDy=0;fontColor=#FFFFFF;" parent="1" edge="1">
          <mxGeometry width="50" height="50" relative="1" as="geometry">
            <mxPoint x="490" y="750" as="sourcePoint" />
            <mxPoint x="560" y="749.5" as="targetPoint" />
          </mxGeometry>
        </mxCell>
        <mxCell id="2srjz_qQRc1WShI5TXB5-8" value="A09_NIKTO_SQL_INJECTION" style="rounded=0;whiteSpace=wrap;html=1;fillColor=#99FF33;fontColor=#FFFFFF;fontSize=12;" parent="1" vertex="1">
          <mxGeometry x="2720" y="730" width="180" height="20" as="geometry" />
        </mxCell>
        <mxCell id="2srjz_qQRc1WShI5TXB5-10" value="" style="endArrow=none;html=1;rounded=0;exitX=1;exitY=0.5;exitDx=0;exitDy=0;" parent="1" edge="1" source="2srjz_qQRc1WShI5TXB5-28">
          <mxGeometry width="50" height="50" relative="1" as="geometry">
            <mxPoint x="770" y="750" as="sourcePoint" />
            <mxPoint x="880" y="710" as="targetPoint" />
            <Array as="points">
              <mxPoint x="880" y="750" />
            </Array>
          </mxGeometry>
        </mxCell>
        <mxCell id="2srjz_qQRc1WShI5TXB5-12" value="" style="endArrow=classic;html=1;rounded=0;entryX=0;entryY=0.5;entryDx=0;entryDy=0;fontColor=#FFFFFF;" parent="1" edge="1">
          <mxGeometry width="50" height="50" relative="1" as="geometry">
            <mxPoint x="280" y="750" as="sourcePoint" />
            <mxPoint x="320" y="790" as="targetPoint" />
            <Array as="points">
              <mxPoint x="280" y="790" />
            </Array>
          </mxGeometry>
        </mxCell>
        <mxCell id="2srjz_qQRc1WShI5TXB5-13" value="" style="endArrow=none;html=1;rounded=0;exitX=1;exitY=0.5;exitDx=0;exitDy=0;" parent="1" source="gdtWf7uFJ5adirnmfVYU-34" edge="1">
          <mxGeometry width="50" height="50" relative="1" as="geometry">
            <mxPoint x="770" y="750" as="sourcePoint" />
            <mxPoint x="880" y="750" as="targetPoint" />
            <Array as="points">
              <mxPoint x="880" y="790" />
            </Array>
          </mxGeometry>
        </mxCell>
        <mxCell id="2srjz_qQRc1WShI5TXB5-14" value="A10_NIKTO_FILE_UPLOAD" style="rounded=0;whiteSpace=wrap;html=1;fillColor=#99FF33;fontColor=#FFFFFF;fontSize=12;" parent="1" vertex="1">
          <mxGeometry x="2720" y="770" width="160" height="20" as="geometry" />
        </mxCell>
        <mxCell id="2srjz_qQRc1WShI5TXB5-17" value="B01_FINGERPRINT" style="rounded=0;whiteSpace=wrap;html=1;fillColor=#994C00;fontColor=#FFFFFF;" parent="1" vertex="1">
          <mxGeometry x="280" y="1200" width="120" height="20" as="geometry" />
        </mxCell>
        <mxCell id="2srjz_qQRc1WShI5TXB5-18" value="FINGERPRINT" style="rounded=0;whiteSpace=wrap;html=1;fillColor=#00cc00;strokeColor=#FFCCCC;strokeWidth=3;fontColor=#FFFFFF;" parent="1" vertex="1">
          <mxGeometry x="440" y="200" width="140" height="20" as="geometry" />
        </mxCell>
        <mxCell id="2srjz_qQRc1WShI5TXB5-20" value="FINGERPRINT" style="rounded=0;whiteSpace=wrap;html=1;fillColor=#00cc00;fontColor=#FFFFFF;" parent="1" vertex="1">
          <mxGeometry x="80" y="1120" width="120" height="20" as="geometry" />
        </mxCell>
        <mxCell id="2srjz_qQRc1WShI5TXB5-21" value="" style="endArrow=classic;html=1;rounded=0;fontColor=#FFFFFF;entryX=0;entryY=0.5;entryDx=0;entryDy=0;" parent="1" edge="1" target="2srjz_qQRc1WShI5TXB5-22">
          <mxGeometry width="50" height="50" relative="1" as="geometry">
            <mxPoint x="200" y="1130" as="sourcePoint" />
            <mxPoint x="330" y="1130" as="targetPoint" />
          </mxGeometry>
        </mxCell>
        <mxCell id="2srjz_qQRc1WShI5TXB5-22" value="END_A" style="rounded=0;whiteSpace=wrap;html=1;fillColor=#666666;fontColor=#FFFFFF;" parent="1" vertex="1">
          <mxGeometry x="640" y="1120" width="120" height="20" as="geometry" />
        </mxCell>
        <mxCell id="2srjz_qQRc1WShI5TXB5-24" value="" style="endArrow=classic;html=1;rounded=0;exitX=1;exitY=0.5;exitDx=0;exitDy=0;entryX=0.5;entryY=0;entryDx=0;entryDy=0;" parent="1" source="EcQkCJxtu4nCPvpzbWq9-60" target="EcQkCJxtu4nCPvpzbWq9-43" edge="1">
          <mxGeometry width="50" height="50" relative="1" as="geometry">
            <mxPoint x="1070" y="275" as="sourcePoint" />
            <mxPoint x="2590" y="210" as="targetPoint" />
            <Array as="points">
              <mxPoint x="1000" y="210" />
              <mxPoint x="2020" y="210" />
              <mxPoint x="3060" y="210" />
            </Array>
          </mxGeometry>
        </mxCell>
        <mxCell id="2srjz_qQRc1WShI5TXB5-28" value="V23_INFO_DISC_DIRB_FFUF" style="rounded=0;whiteSpace=wrap;html=1;fillColor=#FF8000;fontColor=#FFFFFF;" parent="1" vertex="1">
          <mxGeometry x="560" y="740" width="180" height="20" as="geometry" />
        </mxCell>
        <mxCell id="2srjz_qQRc1WShI5TXB5-31" value="A12_NIKTO_SOFTWARE_IDENTIFICATION" style="rounded=0;whiteSpace=wrap;html=1;fillColor=#99FF33;fontColor=#FFFFFF;fontSize=11;" parent="1" vertex="1">
          <mxGeometry x="2720" y="850" width="240" height="20" as="geometry" />
        </mxCell>
        <mxCell id="2srjz_qQRc1WShI5TXB5-32" value="" style="endArrow=classic;html=1;rounded=0;entryX=0;entryY=0.5;entryDx=0;entryDy=0;fontColor=#FFFFFF;" parent="1" edge="1">
          <mxGeometry width="50" height="50" relative="1" as="geometry">
            <mxPoint x="240" y="1130" as="sourcePoint" />
            <mxPoint x="280" y="1170" as="targetPoint" />
            <Array as="points">
              <mxPoint x="240" y="1170" />
            </Array>
          </mxGeometry>
        </mxCell>
        <mxCell id="2srjz_qQRc1WShI5TXB5-33" value="A14_NIKTO_WEBSERVICE" style="rounded=0;whiteSpace=wrap;html=1;fillColor=#99FF33;fontColor=#FFFFFF;fontSize=12;" parent="1" vertex="1">
          <mxGeometry x="2720" y="930" width="160" height="20" as="geometry" />
        </mxCell>
        <mxCell id="2srjz_qQRc1WShI5TXB5-37" value="" style="endArrow=classic;html=1;rounded=0;exitX=1;exitY=0.5;exitDx=0;exitDy=0;" parent="1" source="gdtWf7uFJ5adirnmfVYU-6" edge="1">
          <mxGeometry width="50" height="50" relative="1" as="geometry">
            <mxPoint x="580" y="1170" as="sourcePoint" />
            <mxPoint x="680" y="1140" as="targetPoint" />
            <Array as="points">
              <mxPoint x="680" y="1170" />
            </Array>
          </mxGeometry>
        </mxCell>
        <mxCell id="2srjz_qQRc1WShI5TXB5-38" value="B02_SHORTSCAN" style="rounded=0;whiteSpace=wrap;html=1;fillColor=#994C00;fontColor=#FFFFFF;" parent="1" vertex="1">
          <mxGeometry x="480" y="1200" width="120" height="20" as="geometry" />
        </mxCell>
        <mxCell id="2srjz_qQRc1WShI5TXB5-39" value="" style="endArrow=classic;html=1;rounded=0;fontColor=#FFFFFF;entryX=0;entryY=0.5;entryDx=0;entryDy=0;" parent="1" edge="1">
          <mxGeometry width="50" height="50" relative="1" as="geometry">
            <mxPoint x="400" y="1209.55" as="sourcePoint" />
            <mxPoint x="480" y="1209.55" as="targetPoint" />
          </mxGeometry>
        </mxCell>
        <mxCell id="2srjz_qQRc1WShI5TXB5-40" value="A04_NIKTO_INJECTION" style="rounded=0;whiteSpace=wrap;html=1;fillColor=#99FF33;fontColor=#FFFFFF;fontSize=12;" parent="1" vertex="1">
          <mxGeometry x="2720" y="530" width="150" height="20" as="geometry" />
        </mxCell>
        <mxCell id="2srjz_qQRc1WShI5TXB5-43" value="A13_NIKTO_REMOTE_SOURCE_INCLUSION" style="rounded=0;whiteSpace=wrap;html=1;fillColor=#99FF33;fontColor=#FFFFFF;fontSize=11;" parent="1" vertex="1">
          <mxGeometry x="2720" y="890" width="240" height="20" as="geometry" />
        </mxCell>
        <mxCell id="2srjz_qQRc1WShI5TXB5-46" value="CLUSTER5" style="rounded=0;whiteSpace=wrap;html=1;fillColor=#666666;fontColor=#FFFFFF;" parent="1" vertex="1">
          <mxGeometry x="2540" y="360" width="120" height="20" as="geometry" />
        </mxCell>
        <mxCell id="2srjz_qQRc1WShI5TXB5-47" value="A01_NIKTO_INTERESTING_FILES" style="rounded=0;whiteSpace=wrap;html=1;fillColor=#99FF33;fontColor=#FFFFFF;fontSize=11;" parent="1" vertex="1">
          <mxGeometry x="2720" y="410" width="180" height="20" as="geometry" />
        </mxCell>
        <mxCell id="2srjz_qQRc1WShI5TXB5-48" value="" style="endArrow=classic;html=1;rounded=0;entryX=0;entryY=0.5;entryDx=0;entryDy=0;fontColor=#FFFFFF;exitX=1;exitY=0.5;exitDx=0;exitDy=0;" parent="1" edge="1">
          <mxGeometry width="50" height="50" relative="1" as="geometry">
            <mxPoint x="2660" y="370" as="sourcePoint" />
            <mxPoint x="2720" y="420" as="targetPoint" />
            <Array as="points">
              <mxPoint x="2680" y="370" />
              <mxPoint x="2680" y="420" />
            </Array>
          </mxGeometry>
        </mxCell>
        <mxCell id="2srjz_qQRc1WShI5TXB5-49" value="A05_NIKTO_REMOTE_FILE_RETRIEVAL1" style="rounded=0;whiteSpace=wrap;html=1;fillColor=#99FF33;fontColor=#FFFFFF;fontSize=11;" parent="1" vertex="1">
          <mxGeometry x="2720" y="570" width="220" height="20" as="geometry" />
        </mxCell>
        <mxCell id="2srjz_qQRc1WShI5TXB5-50" value="" style="endArrow=classic;html=1;rounded=0;entryX=0;entryY=0.5;entryDx=0;entryDy=0;fontColor=#FFFFFF;" parent="1" edge="1">
          <mxGeometry width="50" height="50" relative="1" as="geometry">
            <mxPoint x="2680" y="420" as="sourcePoint" />
            <mxPoint x="2720" y="460" as="targetPoint" />
            <Array as="points">
              <mxPoint x="2680" y="460" />
            </Array>
          </mxGeometry>
        </mxCell>
        <mxCell id="2srjz_qQRc1WShI5TXB5-51" value="" style="endArrow=classic;html=1;rounded=0;entryX=0;entryY=0.5;entryDx=0;entryDy=0;fontColor=#FFFFFF;" parent="1" edge="1">
          <mxGeometry width="50" height="50" relative="1" as="geometry">
            <mxPoint x="2680" y="460" as="sourcePoint" />
            <mxPoint x="2720" y="500" as="targetPoint" />
            <Array as="points">
              <mxPoint x="2680" y="500" />
            </Array>
          </mxGeometry>
        </mxCell>
        <mxCell id="2srjz_qQRc1WShI5TXB5-52" value="A02_NIKTO_MISCONFIGURATION" style="rounded=0;whiteSpace=wrap;html=1;fillColor=#99FF33;fontColor=#FFFFFF;fontSize=11;" parent="1" vertex="1">
          <mxGeometry x="2720" y="450" width="180" height="20" as="geometry" />
        </mxCell>
        <mxCell id="2srjz_qQRc1WShI5TXB5-53" value="A06_NIKTO_DENIAL_OF_SERVICE" style="rounded=0;whiteSpace=wrap;html=1;fillColor=#99FF33;fontColor=#FFFFFF;fontSize=11;" parent="1" vertex="1">
          <mxGeometry x="2720" y="610" width="190" height="20" as="geometry" />
        </mxCell>
        <mxCell id="2srjz_qQRc1WShI5TXB5-54" value="" style="endArrow=classic;html=1;rounded=0;entryX=0;entryY=0.5;entryDx=0;entryDy=0;fontColor=#FFFFFF;" parent="1" edge="1">
          <mxGeometry width="50" height="50" relative="1" as="geometry">
            <mxPoint x="2680" y="580" as="sourcePoint" />
            <mxPoint x="2720" y="620" as="targetPoint" />
            <Array as="points">
              <mxPoint x="2680" y="620" />
            </Array>
          </mxGeometry>
        </mxCell>
        <mxCell id="2srjz_qQRc1WShI5TXB5-55" value="A07_NIKTO_REMOTE_FILE_RETRIEVAL2" style="rounded=0;whiteSpace=wrap;html=1;fillColor=#99FF33;fontColor=#FFFFFF;fontSize=11;" parent="1" vertex="1">
          <mxGeometry x="2720" y="650" width="220" height="20" as="geometry" />
        </mxCell>
        <mxCell id="2srjz_qQRc1WShI5TXB5-56" value="" style="endArrow=classic;html=1;rounded=0;entryX=0;entryY=0.5;entryDx=0;entryDy=0;fontColor=#FFFFFF;" parent="1" edge="1">
          <mxGeometry width="50" height="50" relative="1" as="geometry">
            <mxPoint x="2680" y="620" as="sourcePoint" />
            <mxPoint x="2720" y="660" as="targetPoint" />
            <Array as="points">
              <mxPoint x="2680" y="660" />
            </Array>
          </mxGeometry>
        </mxCell>
        <mxCell id="2srjz_qQRc1WShI5TXB5-57" value="A08_NIKTO_COMMAND_EXECUTION" style="rounded=0;whiteSpace=wrap;html=1;fillColor=#99FF33;fontColor=#FFFFFF;fontSize=11;" parent="1" vertex="1">
          <mxGeometry x="2720" y="690" width="200" height="20" as="geometry" />
        </mxCell>
        <mxCell id="2srjz_qQRc1WShI5TXB5-58" value="" style="endArrow=classic;html=1;rounded=0;entryX=0;entryY=0.5;entryDx=0;entryDy=0;fontColor=#FFFFFF;" parent="1" edge="1">
          <mxGeometry width="50" height="50" relative="1" as="geometry">
            <mxPoint x="2680" y="660" as="sourcePoint" />
            <mxPoint x="2720" y="700" as="targetPoint" />
            <Array as="points">
              <mxPoint x="2680" y="700" />
            </Array>
          </mxGeometry>
        </mxCell>
        <mxCell id="2srjz_qQRc1WShI5TXB5-59" value="A11_NIKTO_AUTHENTICATION_BYPASS" style="rounded=0;whiteSpace=wrap;html=1;fillColor=#99FF33;fontColor=#FFFFFF;fontSize=11;" parent="1" vertex="1">
          <mxGeometry x="2720" y="810" width="220" height="20" as="geometry" />
        </mxCell>
        <mxCell id="2srjz_qQRc1WShI5TXB5-60" value="" style="endArrow=classic;html=1;rounded=0;entryX=0;entryY=0.5;entryDx=0;entryDy=0;fontColor=#FFFFFF;" parent="1" edge="1">
          <mxGeometry width="50" height="50" relative="1" as="geometry">
            <mxPoint x="2680" y="700" as="sourcePoint" />
            <mxPoint x="2720" y="740" as="targetPoint" />
            <Array as="points">
              <mxPoint x="2680" y="740" />
            </Array>
          </mxGeometry>
        </mxCell>
        <mxCell id="2srjz_qQRc1WShI5TXB5-61" value="A15_NIKTO_ADMINISTRATIVE_CONSOLE" style="rounded=0;whiteSpace=wrap;html=1;fillColor=#99FF33;fontColor=#FFFFFF;fontSize=11;" parent="1" vertex="1">
          <mxGeometry x="2720" y="970" width="220" height="20" as="geometry" />
        </mxCell>
        <mxCell id="2srjz_qQRc1WShI5TXB5-62" value="" style="endArrow=classic;html=1;rounded=0;entryX=0;entryY=0.5;entryDx=0;entryDy=0;fontColor=#FFFFFF;" parent="1" edge="1">
          <mxGeometry width="50" height="50" relative="1" as="geometry">
            <mxPoint x="2680" y="820" as="sourcePoint" />
            <mxPoint x="2720" y="860" as="targetPoint" />
            <Array as="points">
              <mxPoint x="2680" y="860" />
            </Array>
          </mxGeometry>
        </mxCell>
        <mxCell id="2srjz_qQRc1WShI5TXB5-63" value="" style="endArrow=classic;html=1;rounded=0;exitX=1;exitY=0.5;exitDx=0;exitDy=0;" parent="1" source="2srjz_qQRc1WShI5TXB5-47" edge="1">
          <mxGeometry width="50" height="50" relative="1" as="geometry">
            <mxPoint x="2940" y="420" as="sourcePoint" />
            <mxPoint x="3060" y="380" as="targetPoint" />
            <Array as="points">
              <mxPoint x="3060" y="420" />
            </Array>
          </mxGeometry>
        </mxCell>
        <mxCell id="2srjz_qQRc1WShI5TXB5-64" value="" style="endArrow=none;html=1;rounded=0;exitX=1;exitY=0.5;exitDx=0;exitDy=0;" parent="1" source="2srjz_qQRc1WShI5TXB5-52" edge="1">
          <mxGeometry width="50" height="50" relative="1" as="geometry">
            <mxPoint x="2940" y="460" as="sourcePoint" />
            <mxPoint x="3060" y="420" as="targetPoint" />
            <Array as="points">
              <mxPoint x="3060" y="460" />
            </Array>
          </mxGeometry>
        </mxCell>
        <mxCell id="2srjz_qQRc1WShI5TXB5-65" value="" style="endArrow=none;html=1;rounded=0;" parent="1" edge="1">
          <mxGeometry width="50" height="50" relative="1" as="geometry">
            <mxPoint x="2910" y="620" as="sourcePoint" />
            <mxPoint x="3060" y="580" as="targetPoint" />
            <Array as="points">
              <mxPoint x="3060" y="620" />
            </Array>
          </mxGeometry>
        </mxCell>
        <mxCell id="2srjz_qQRc1WShI5TXB5-66" value="" style="endArrow=none;html=1;rounded=0;exitX=1;exitY=0.5;exitDx=0;exitDy=0;" parent="1" source="2srjz_qQRc1WShI5TXB5-57" edge="1">
          <mxGeometry width="50" height="50" relative="1" as="geometry">
            <mxPoint x="2930" y="700" as="sourcePoint" />
            <mxPoint x="3060" y="660" as="targetPoint" />
            <Array as="points">
              <mxPoint x="3060" y="700" />
            </Array>
          </mxGeometry>
        </mxCell>
        <mxCell id="2srjz_qQRc1WShI5TXB5-67" value="" style="endArrow=none;html=1;rounded=0;exitX=1;exitY=0.5;exitDx=0;exitDy=0;" parent="1" edge="1" source="2srjz_qQRc1WShI5TXB5-6">
          <mxGeometry width="50" height="50" relative="1" as="geometry">
            <mxPoint x="2940" y="500" as="sourcePoint" />
            <mxPoint x="3060" y="460" as="targetPoint" />
            <Array as="points">
              <mxPoint x="3060" y="500" />
            </Array>
          </mxGeometry>
        </mxCell>
        <mxCell id="2srjz_qQRc1WShI5TXB5-68" value="" style="endArrow=none;html=1;rounded=0;" parent="1" edge="1">
          <mxGeometry width="50" height="50" relative="1" as="geometry">
            <mxPoint x="2940" y="660" as="sourcePoint" />
            <mxPoint x="3060" y="620" as="targetPoint" />
            <Array as="points">
              <mxPoint x="3060" y="660" />
            </Array>
          </mxGeometry>
        </mxCell>
        <mxCell id="2srjz_qQRc1WShI5TXB5-69" value="" style="endArrow=none;html=1;rounded=0;exitX=1;exitY=0.5;exitDx=0;exitDy=0;" parent="1" edge="1" source="2srjz_qQRc1WShI5TXB5-8">
          <mxGeometry width="50" height="50" relative="1" as="geometry">
            <mxPoint x="2940" y="740" as="sourcePoint" />
            <mxPoint x="3060" y="700" as="targetPoint" />
            <Array as="points">
              <mxPoint x="3060" y="740" />
            </Array>
          </mxGeometry>
        </mxCell>
        <mxCell id="2srjz_qQRc1WShI5TXB5-70" value="" style="endArrow=none;html=1;rounded=0;" parent="1" edge="1">
          <mxGeometry width="50" height="50" relative="1" as="geometry">
            <mxPoint x="2960" y="860" as="sourcePoint" />
            <mxPoint x="3060" y="820" as="targetPoint" />
            <Array as="points">
              <mxPoint x="3060" y="860" />
            </Array>
          </mxGeometry>
        </mxCell>
        <mxCell id="2srjz_qQRc1WShI5TXB5-71" value="" style="endArrow=classic;html=1;rounded=0;exitX=1;exitY=0.5;exitDx=0;exitDy=0;" parent="1" source="2srjz_qQRc1WShI5TXB5-38" edge="1">
          <mxGeometry width="50" height="50" relative="1" as="geometry">
            <mxPoint x="640" y="1170" as="sourcePoint" />
            <mxPoint x="720" y="1140" as="targetPoint" />
            <Array as="points">
              <mxPoint x="720" y="1210" />
            </Array>
          </mxGeometry>
        </mxCell>
        <mxCell id="j-Ep-WpX5RM2hb6cLax4-1" value="" style="endArrow=classic;html=1;rounded=0;entryX=0;entryY=0.5;entryDx=0;entryDy=0;fontColor=#FFFFFF;" edge="1" parent="1">
          <mxGeometry width="50" height="50" relative="1" as="geometry">
            <mxPoint x="2680" y="500" as="sourcePoint" />
            <mxPoint x="2720" y="540" as="targetPoint" />
            <Array as="points">
              <mxPoint x="2680" y="540" />
            </Array>
          </mxGeometry>
        </mxCell>
        <mxCell id="j-Ep-WpX5RM2hb6cLax4-2" value="" style="endArrow=classic;html=1;rounded=0;entryX=0;entryY=0.5;entryDx=0;entryDy=0;fontColor=#FFFFFF;" edge="1" parent="1">
          <mxGeometry width="50" height="50" relative="1" as="geometry">
            <mxPoint x="2680" y="540" as="sourcePoint" />
            <mxPoint x="2720" y="580" as="targetPoint" />
            <Array as="points">
              <mxPoint x="2680" y="580" />
            </Array>
          </mxGeometry>
        </mxCell>
        <mxCell id="j-Ep-WpX5RM2hb6cLax4-3" value="" style="endArrow=classic;html=1;rounded=0;entryX=0;entryY=0.5;entryDx=0;entryDy=0;fontColor=#FFFFFF;" edge="1" parent="1">
          <mxGeometry width="50" height="50" relative="1" as="geometry">
            <mxPoint x="2680" y="740" as="sourcePoint" />
            <mxPoint x="2720" y="780" as="targetPoint" />
            <Array as="points">
              <mxPoint x="2680" y="780" />
            </Array>
          </mxGeometry>
        </mxCell>
        <mxCell id="j-Ep-WpX5RM2hb6cLax4-4" value="" style="endArrow=classic;html=1;rounded=0;entryX=0;entryY=0.5;entryDx=0;entryDy=0;fontColor=#FFFFFF;" edge="1" parent="1">
          <mxGeometry width="50" height="50" relative="1" as="geometry">
            <mxPoint x="2680" y="780" as="sourcePoint" />
            <mxPoint x="2720" y="820" as="targetPoint" />
            <Array as="points">
              <mxPoint x="2680" y="820" />
            </Array>
          </mxGeometry>
        </mxCell>
        <mxCell id="j-Ep-WpX5RM2hb6cLax4-5" value="" style="endArrow=classic;html=1;rounded=0;entryX=0;entryY=0.5;entryDx=0;entryDy=0;fontColor=#FFFFFF;" edge="1" parent="1">
          <mxGeometry width="50" height="50" relative="1" as="geometry">
            <mxPoint x="2680" y="860" as="sourcePoint" />
            <mxPoint x="2720" y="900" as="targetPoint" />
            <Array as="points">
              <mxPoint x="2680" y="900" />
            </Array>
          </mxGeometry>
        </mxCell>
        <mxCell id="j-Ep-WpX5RM2hb6cLax4-6" value="" style="endArrow=classic;html=1;rounded=0;entryX=0;entryY=0.5;entryDx=0;entryDy=0;fontColor=#FFFFFF;" edge="1" parent="1">
          <mxGeometry width="50" height="50" relative="1" as="geometry">
            <mxPoint x="2680" y="900" as="sourcePoint" />
            <mxPoint x="2720" y="940" as="targetPoint" />
            <Array as="points">
              <mxPoint x="2680" y="940" />
            </Array>
          </mxGeometry>
        </mxCell>
        <mxCell id="j-Ep-WpX5RM2hb6cLax4-7" value="" style="endArrow=classic;html=1;rounded=0;entryX=0;entryY=0.5;entryDx=0;entryDy=0;fontColor=#FFFFFF;" edge="1" parent="1">
          <mxGeometry width="50" height="50" relative="1" as="geometry">
            <mxPoint x="2680" y="940" as="sourcePoint" />
            <mxPoint x="2720" y="980" as="targetPoint" />
            <Array as="points">
              <mxPoint x="2680" y="980" />
            </Array>
          </mxGeometry>
        </mxCell>
        <mxCell id="j-Ep-WpX5RM2hb6cLax4-9" value="" style="endArrow=none;html=1;rounded=0;exitX=1;exitY=0.5;exitDx=0;exitDy=0;" edge="1" parent="1" source="2srjz_qQRc1WShI5TXB5-40">
          <mxGeometry width="50" height="50" relative="1" as="geometry">
            <mxPoint x="2940" y="540" as="sourcePoint" />
            <mxPoint x="3060" y="500" as="targetPoint" />
            <Array as="points">
              <mxPoint x="3060" y="540" />
            </Array>
          </mxGeometry>
        </mxCell>
        <mxCell id="j-Ep-WpX5RM2hb6cLax4-10" value="" style="endArrow=none;html=1;rounded=0;" edge="1" parent="1">
          <mxGeometry width="50" height="50" relative="1" as="geometry">
            <mxPoint x="2940" y="580" as="sourcePoint" />
            <mxPoint x="3060" y="540" as="targetPoint" />
            <Array as="points">
              <mxPoint x="3060" y="580" />
            </Array>
          </mxGeometry>
        </mxCell>
        <mxCell id="j-Ep-WpX5RM2hb6cLax4-11" value="" style="endArrow=none;html=1;rounded=0;exitX=1;exitY=0.5;exitDx=0;exitDy=0;" edge="1" parent="1" source="2srjz_qQRc1WShI5TXB5-14">
          <mxGeometry width="50" height="50" relative="1" as="geometry">
            <mxPoint x="2940" y="780" as="sourcePoint" />
            <mxPoint x="3060" y="740" as="targetPoint" />
            <Array as="points">
              <mxPoint x="3060" y="780" />
            </Array>
          </mxGeometry>
        </mxCell>
        <mxCell id="j-Ep-WpX5RM2hb6cLax4-12" value="" style="endArrow=none;html=1;rounded=0;" edge="1" parent="1">
          <mxGeometry width="50" height="50" relative="1" as="geometry">
            <mxPoint x="2940" y="820" as="sourcePoint" />
            <mxPoint x="3060" y="780" as="targetPoint" />
            <Array as="points">
              <mxPoint x="3060" y="820" />
            </Array>
          </mxGeometry>
        </mxCell>
        <mxCell id="j-Ep-WpX5RM2hb6cLax4-13" value="" style="endArrow=none;html=1;rounded=0;" edge="1" parent="1">
          <mxGeometry width="50" height="50" relative="1" as="geometry">
            <mxPoint x="2960" y="900" as="sourcePoint" />
            <mxPoint x="3060" y="860" as="targetPoint" />
            <Array as="points">
              <mxPoint x="3060" y="900" />
            </Array>
          </mxGeometry>
        </mxCell>
        <mxCell id="j-Ep-WpX5RM2hb6cLax4-14" value="" style="endArrow=none;html=1;rounded=0;exitX=1;exitY=0.5;exitDx=0;exitDy=0;" edge="1" parent="1" source="2srjz_qQRc1WShI5TXB5-33">
          <mxGeometry width="50" height="50" relative="1" as="geometry">
            <mxPoint x="2940" y="940" as="sourcePoint" />
            <mxPoint x="3060" y="900" as="targetPoint" />
            <Array as="points">
              <mxPoint x="3060" y="940" />
            </Array>
          </mxGeometry>
        </mxCell>
        <mxCell id="j-Ep-WpX5RM2hb6cLax4-15" value="" style="endArrow=none;html=1;rounded=0;" edge="1" parent="1">
          <mxGeometry width="50" height="50" relative="1" as="geometry">
            <mxPoint x="2940" y="980" as="sourcePoint" />
            <mxPoint x="3060" y="940" as="targetPoint" />
            <Array as="points">
              <mxPoint x="3060" y="980" />
            </Array>
          </mxGeometry>
        </mxCell>
        <mxCell id="j-Ep-WpX5RM2hb6cLax4-16" value="" style="endArrow=classic;html=1;rounded=0;entryX=0;entryY=0.5;entryDx=0;entryDy=0;fontColor=#FFFFFF;" edge="1" parent="1">
          <mxGeometry width="50" height="50" relative="1" as="geometry">
            <mxPoint x="280" y="790" as="sourcePoint" />
            <mxPoint x="320" y="830" as="targetPoint" />
            <Array as="points">
              <mxPoint x="280" y="830" />
            </Array>
          </mxGeometry>
        </mxCell>
      </root>
    </mxGraphModel>
  </diagram>
</mxfile>
